<?xml version="1.0" encoding="us-ascii" standalone="no"?><svg xmlns="http://www.w3.org/2000/svg" xmlns:xlink="http://www.w3.org/1999/xlink" contentStyleType="text/css" height="633px" preserveAspectRatio="none" style="width:416px;height:633px;background:#FFFFFF;" version="1.1" viewBox="0 0 416 633" width="416px" zoomAndPan="magnify"><defs/><g><!--cluster system--><g id="cluster_system"><path d="M43.5,121.27 L178.5,121.27 A3.75,3.75 0 0 1 181,123.77 L188,147.5419 L406.5,147.5419 A2.5,2.5 0 0 1 409,150.0419 L409,623.95 A2.5,2.5 0 0 1 406.5,626.45 L43.5,626.45 A2.5,2.5 0 0 1 41,623.95 L41,123.77 A2.5,2.5 0 0 1 43.5,121.27 " fill="none" style="stroke:#000000;stroke-width:1.5;"/><line style="stroke:#000000;stroke-width:1.5;" x1="41" x2="188" y1="147.5419" y2="147.5419"/><text fill="#000000" font-family="Noto Sans CJK JP" font-size="14" font-weight="bold" lengthAdjust="spacing" textLength="134" x="45" y="139.5099">Debian Alternatives</text></g><!--cluster bin--><g id="cluster_bin"><path d="M83.5,176.27 L251.5,176.27 A3.75,3.75 0 0 1 254,178.77 L261,202.5419 L374.5,202.5419 A2.5,2.5 0 0 1 377,205.0419 L377,301.59 A2.5,2.5 0 0 1 374.5,304.09 L83.5,304.09 A2.5,2.5 0 0 1 81,301.59 L81,178.77 A2.5,2.5 0 0 1 83.5,176.27 " fill="none" style="stroke:#000000;stroke-width:1.5;"/><line style="stroke:#000000;stroke-width:1.5;" x1="81" x2="261" y1="202.5419" y2="202.5419"/><text fill="#000000" font-family="Noto Sans CJK JP" font-size="14" font-weight="bold" lengthAdjust="spacing" textLength="167" x="85" y="194.5099">&#128193;/usr/bin; /usr/local/bin</text></g><!--cluster alternatives--><g id="cluster_alternatives"><path d="M132.5,356.09 L260.5,356.09 A3.75,3.75 0 0 1 263,358.59 L270,382.3619 L325.5,382.3619 A2.5,2.5 0 0 1 328,384.8619 L328,461.13 A2.5,2.5 0 0 1 325.5,463.63 L132.5,463.63 A2.5,2.5 0 0 1 130,461.13 L130,358.59 A2.5,2.5 0 0 1 132.5,356.09 " fill="none" style="stroke:#000000;stroke-width:1.5;"/><line style="stroke:#000000;stroke-width:1.5;" x1="130" x2="270" y1="382.3619" y2="382.3619"/><text fill="#000000" font-family="Noto Sans CJK JP" font-size="14" font-weight="bold" lengthAdjust="spacing" textLength="127" x="134" y="374.3299">&#128193;/etc/alternatives</text></g><g id="elem_cmd"><rect fill="#F1F1F1" height="72.8157" style="stroke:#181818;stroke-width:0.5;" width="250" x="104" y="529.63"/><text fill="#000000" font-family="Noto Sans CJK JP" font-size="14" lengthAdjust="spacing" textLength="98" x="180" y="547.8699">&#128640;&#12467;&#12510;&#12531;&#12489;&#26412;&#20307;</text><line style="stroke:#181818;stroke-width:0.5;" x1="105" x2="353" y1="553.9019" y2="553.9019"/><text fill="#000000" font-family="Noto Sans CJK JP" font-size="14" lengthAdjust="spacing" textLength="168" x="110" y="574.1418">&#20778;&#20808;&#24230;&#12395;&#12424;&#12387;&#12390;&#27770;&#23450;&#12373;&#12428;&#12427;</text><text fill="#000000" font-family="Noto Sans CJK JP" font-size="14" lengthAdjust="spacing" textLength="238" x="110" y="594.4138">&#12418;&#12375;&#12367;&#12399;&#26126;&#31034;&#30340;&#12395;&#25351;&#23450;&#12377;&#12427;&#12371;&#12392;&#12418;&#21487;&#33021;</text></g><g id="elem_symlink"><rect fill="#F1F1F1" height="72.8157" style="stroke:#181818;stroke-width:0.5;" width="264" x="97" y="215.27"/><text fill="#000000" font-family="Noto Sans CJK JP" font-size="14" lengthAdjust="spacing" textLength="174" x="142" y="233.5099">&#128279;&#19968;&#33324;&#21517;&#65288;generic name&#65289;</text><line style="stroke:#181818;stroke-width:0.5;" x1="98" x2="360" y1="239.5419" y2="239.5419"/><text fill="#000000" font-family="Noto Sans CJK JP" font-size="14" lengthAdjust="spacing" textLength="252" x="103" y="259.7818">&#12518;&#12540;&#12470;&#12540;&#12364;&#23455;&#34892;&#12377;&#12427;&#12471;&#12531;&#12508;&#12522;&#12483;&#12463;&#12522;&#12531;&#12463;</text><text fill="#000000" font-family="Noto Sans CJK JP" font-size="14" lengthAdjust="spacing" textLength="210" x="103" y="280.0538">&#19968;&#33324;&#30340;&#12395;&#12522;&#12531;&#12463;&#12464;&#12523;&#12540;&#12503;&#21517;&#12392;&#21516;&#21517;</text></g><g id="elem_altlink"><rect fill="#F1F1F1" height="52.5438" style="stroke:#181818;stroke-width:0.5;" width="166" x="146" y="395.09"/><text fill="#000000" font-family="Noto Sans CJK JP" font-size="14" lengthAdjust="spacing" textLength="140" x="159" y="413.3299">&#128279;&#12471;&#12531;&#12508;&#12522;&#12483;&#12463;&#12522;&#12531;&#12463;</text><line style="stroke:#181818;stroke-width:0.5;" x1="147" x2="311" y1="419.3619" y2="419.3619"/><text fill="#000000" font-family="Noto Sans CJK JP" font-size="14" lengthAdjust="spacing" textLength="154" x="152" y="439.6018">&#12522;&#12531;&#12463;&#12464;&#12523;&#12540;&#12503;&#12392;&#21516;&#19968;&#21517;</text></g><g id="elem_user"><rect fill="#F1F1F1" height="40.2719" style="stroke:#181818;stroke-width:0.5;" width="84" x="7" y="7"/><text fill="#000000" font-family="Noto Sans CJK JP" font-size="14" lengthAdjust="spacing" textLength="70" x="14" y="25.2399">&#128578;&#12518;&#12540;&#12470;&#12540;</text><line style="stroke:#181818;stroke-width:0.5;" x1="8" x2="90" y1="31.2719" y2="31.2719"/></g><!--link symlink to altlink--><g id="link_symlink_altlink"><path codeLine="23" d="M229,288.24 C229,320.16 229,360.24 229,388.69 " fill="none" id="symlink-to-altlink" style="stroke:#181818;stroke-width:1.0;stroke-dasharray:7.0,7.0;"/><polygon fill="#181818" points="229,394.69,233,385.69,229,389.69,225,385.69,229,394.69" style="stroke:#181818;stroke-width:1.0;"/><polygon fill="#000000" points="234,335.502,236.9389,326.4569,231.0611,326.4569,234,335.502" style="stroke:#000000;stroke-width:1.0;"/><text fill="#000000" font-family="Noto Sans CJK JP" font-size="13" lengthAdjust="spacing" textLength="28" x="243" y="336.17">LINK</text></g><!--link altlink to cmd--><g id="link_altlink_cmd"><path codeLine="24" d="M229,447.87 C229,470.55 229,497.96 229,523.3 " fill="none" id="altlink-to-cmd" style="stroke:#181818;stroke-width:1.0;stroke-dasharray:7.0,7.0;"/><polygon fill="#181818" points="229,529.3,233,520.3,229,524.3,225,520.3,229,529.3" style="stroke:#181818;stroke-width:1.0;"/><polygon fill="#000000" points="234,495.042,236.9389,485.9969,231.0611,485.9969,234,495.042" style="stroke:#000000;stroke-width:1.0;"/><text fill="#000000" font-family="Noto Sans CJK JP" font-size="13" lengthAdjust="spacing" textLength="28" x="243" y="495.71">LINK</text></g><!--link user to system--><g id="link_user_system"><path codeLine="25" d="M49,47.5 C49,60.825 49,79.8969 49,101.08 C49,106.3758 49,111.8035 49,117.3064 C49,117.9943 49,118.6833 49,119.3734 C49,119.7184 49,114.0638 49,114.4093 " fill="none" id="user-to-system" style="stroke:#181818;stroke-width:1.0;"/><polygon fill="#181818" points="49,120.4093,53,111.4093,49,115.4093,45,111.4093,49,120.4093" style="stroke:#181818;stroke-width:1.0;"/><polygon fill="#000000" points="54,92.682,56.9389,83.6369,51.0611,83.6369,54,92.682" style="stroke:#000000;stroke-width:1.0;"/><text fill="#000000" font-family="Noto Sans CJK JP" font-size="13" lengthAdjust="spacing" textLength="120" x="63" y="93.35">update-alternatives</text></g><!--SRC=[VLBTIXj15BwVfpZaFkPU8I2MWZy4mIUORAQopUvis9q8HGHdnj98jrM8nHf44IM8Yb44Ao4-pN5ZxlGHEZlvQIBIYzqzE-Tyy_tCH6MNLsX8VIYnJxJgYOy15mNgCyWK0X702kKHp2qimi9oXf0ATSfqrVG-iA9BESnwWeMS2dUDHHcW4KHV8i5yM2S0ezdNuxhCLQCmLtJv3DZA2npgfVyMPBuM0H0KFpD7f92z_QU7pLxjAjdzyTAfhJBEGjS1ReIzTBO7LBxdyl802O2wYRg3wZvzopYvFkwTn2WFK7r7zGVr7Uf3r1UeDQgMBUvCCG3toPuRMoWlHprKDwWlq-tqlj61yZpPZKrXCHka_qpQPCB9qRUXZ2-yO_G_weRmDqRVqTSNPsnCwYFZL8rDL8RdoB9jTm-ldXxhbi7nIuFTawsBv6ijQJVJ75GDvIdAPlUsdLmtKFv25PiqxI0gXTAmxg1iTN__V3vhzyFhnj_ih8rTreqiCvdij7hwqGhQ8F_q7AZnCxDAgX4B2HaUxTHKVkH-6fRc2ukG9yE5j9aA7pLIB6Ip-U4bd8PgfKG5oqxad_yB]--></g></svg>