<?xml version="1.0" encoding="us-ascii" standalone="no"?><svg xmlns="http://www.w3.org/2000/svg" xmlns:xlink="http://www.w3.org/1999/xlink" contentStyleType="text/css" height="608px" preserveAspectRatio="none" style="width:575px;height:608px;background:#FFFFFF;" version="1.1" viewBox="0 0 575 608" width="575px" zoomAndPan="magnify"><defs/><g><rect fill="none" height="20.9531" style="stroke:none;stroke-width:1.0;" width="542" x="15" y="12.7451"/><ellipse cx="97" cy="48.6982" fill="#222222" rx="10" ry="10" style="stroke:#222222;stroke-width:1.0;"/><rect fill="#F1F1F1" height="47.9375" rx="12.5" ry="12.5" style="stroke:#181818;stroke-width:0.5;" width="140" x="27" y="127.1006"/><text fill="#000000" font-family="sans-serif" font-size="12" lengthAdjust="spacing" textLength="120" x="37" y="148.2393">&#12486;&#12531;&#12503;&#12524;&#12540;&#12488;&#12456;&#12531;&#12472;&#12531;</text><text fill="#000000" font-family="sans-serif" font-size="12" lengthAdjust="spacing" textLength="84" x="37" y="162.208">&#12434;&#12452;&#12531;&#12473;&#12488;&#12540;&#12523;</text><polygon fill="#F1F1F1" points="42,78.6982,152,78.6982,164,90.6982,152,102.6982,42,102.6982,30,90.6982,42,78.6982" style="stroke:#181818;stroke-width:0.5;"/><text fill="#000000" font-family="sans-serif" font-size="11" lengthAdjust="spacing" textLength="22" x="101" y="112.9087">&#28961;&#12375;</text><text fill="#000000" font-family="sans-serif" font-size="11" lengthAdjust="spacing" textLength="110" x="42" y="94.5063">&#12486;&#12531;&#12503;&#12524;&#12540;&#12488;&#12456;&#12531;&#12472;&#12531;</text><text fill="#000000" font-family="sans-serif" font-size="11" lengthAdjust="spacing" textLength="22" x="164" y="88.104">&#26377;&#12426;</text><polygon fill="#F1F1F1" points="97,238.9917,109,250.9917,97,262.9917,85,250.9917,97,238.9917" style="stroke:#181818;stroke-width:0.5;"/><text fill="#000000" font-family="sans-serif" font-size="11" lengthAdjust="spacing" textLength="22" x="103" y="197.9834">EJS,</text><text fill="#000000" font-family="sans-serif" font-size="11" lengthAdjust="spacing" textLength="69" x="103" y="210.7881">Handlebars,</text><text fill="#000000" font-family="sans-serif" font-size="11" lengthAdjust="spacing" textLength="55" x="103" y="223.5928">Nunjucks,</text><text fill="#000000" font-family="sans-serif" font-size="11" lengthAdjust="spacing" textLength="21" x="103" y="236.3975">Pug</text><line style="stroke:#000000;stroke-width:1.5;" x1="15" x2="15" y1="12.7451" y2="596.9766"/><rect fill="#F1F1F1" height="33.9688" rx="12.5" ry="12.5" style="stroke:#181818;stroke-width:0.5;" width="176" x="202" y="282.9917"/><text fill="#000000" font-family="sans-serif" font-size="12" lengthAdjust="spacing" textLength="156" x="212" y="304.1304">&#19978;&#26360;&#12365;&#12375;&#12383;&#12356;&#12494;&#12540;&#12489;&#21517;&#12398;&#30906;&#35469;</text><rect fill="#F1F1F1" height="47.9375" rx="12.5" ry="12.5" style="stroke:#181818;stroke-width:0.5;" width="152" x="214" y="371.1641"/><text fill="#000000" font-family="sans-serif" font-size="12" lengthAdjust="spacing" textLength="132" x="224" y="392.3027">&#19978;&#26360;&#12377;&#12427;&#12494;&#12540;&#12489;&#12392;&#21516;&#21517;&#12398;</text><text fill="#000000" font-family="sans-serif" font-size="12" lengthAdjust="spacing" textLength="108" x="224" y="406.2715">&#12486;&#12531;&#12503;&#12524;&#12540;&#12488;&#12434;&#20316;&#25104;</text><line style="stroke:#000000;stroke-width:1.5;" x1="196" x2="196" y1="12.7451" y2="596.9766"/><rect fill="#F1F1F1" height="47.9375" rx="12.5" ry="12.5" style="stroke:#181818;stroke-width:0.5;" width="116" x="435" y="439.1016"/><text fill="#000000" font-family="sans-serif" font-size="12" lengthAdjust="spacing" textLength="85" x="445" y="460.2402">template_dirs</text><text fill="#000000" font-family="sans-serif" font-size="12" lengthAdjust="spacing" textLength="96" x="445" y="474.209">&#12458;&#12503;&#12471;&#12519;&#12531;&#12434;&#25351;&#23450;</text><rect fill="#F1F1F1" height="47.9375" rx="12.5" ry="12.5" style="stroke:#181818;stroke-width:0.5;" width="101" x="442.5" y="507.0391"/><text fill="#000000" font-family="sans-serif" font-size="12" lengthAdjust="spacing" textLength="81" x="452.5" y="528.1777">asciidoctor&#12391;</text><text fill="#000000" font-family="sans-serif" font-size="12" lengthAdjust="spacing" textLength="56" x="452.5" y="542.1465">HTML&#20986;&#21147;</text><ellipse cx="493" cy="585.9766" fill="none" rx="11" ry="11" style="stroke:#222222;stroke-width:1.0;"/><ellipse cx="493" cy="585.9766" fill="#222222" rx="6" ry="6" style="stroke:#222222;stroke-width:1.0;"/><line style="stroke:#000000;stroke-width:1.5;" x1="429" x2="429" y1="12.7451" y2="596.9766"/><line style="stroke:#000000;stroke-width:1.5;" x1="555" x2="555" y1="12.7451" y2="596.9766"/><line style="stroke:#181818;stroke-width:1.0;" x1="97" x2="97" y1="102.6982" y2="127.1006"/><polygon fill="#181818" points="93,117.1006,97,127.1006,101,117.1006,97,121.1006" style="stroke:#181818;stroke-width:1.0;"/><line style="stroke:#181818;stroke-width:1.0;" x1="164" x2="177" y1="90.6982" y2="90.6982"/><polygon fill="#181818" points="173,166.6787,177,176.6787,181,166.6787,177,170.6787" style="stroke:#181818;stroke-width:1.0;"/><line style="stroke:#181818;stroke-width:1.0;" x1="177" x2="177" y1="90.6982" y2="250.9917"/><line style="stroke:#181818;stroke-width:1.0;" x1="177" x2="109" y1="250.9917" y2="250.9917"/><polygon fill="#181818" points="119,246.9917,109,250.9917,119,254.9917,115,250.9917" style="stroke:#181818;stroke-width:1.0;"/><line style="stroke:#181818;stroke-width:1.0;" x1="97" x2="97" y1="175.0381" y2="238.9917"/><polygon fill="#181818" points="93,228.9917,97,238.9917,101,228.9917,97,232.9917" style="stroke:#181818;stroke-width:1.0;"/><line style="stroke:#181818;stroke-width:1.0;" x1="97" x2="97" y1="58.6982" y2="78.6982"/><polygon fill="#181818" points="93,68.6982,97,78.6982,101,68.6982,97,72.6982" style="stroke:#181818;stroke-width:1.0;"/><line style="stroke:#181818;stroke-width:1.0;" x1="290" x2="290" y1="316.9604" y2="371.1641"/><polygon fill="#181818" points="286,361.1641,290,371.1641,294,361.1641,290,365.1641" style="stroke:#181818;stroke-width:1.0;"/><text fill="#000000" font-family="sans-serif" font-size="11" lengthAdjust="spacing" textLength="130" x="294" y="338.2651">seciton, image, listing,</text><text fill="#000000" font-family="sans-serif" font-size="11" lengthAdjust="spacing" textLength="101" x="294" y="351.0698">table, ulist, ...etc.</text><line style="stroke:#181818;stroke-width:1.0;" x1="493" x2="493" y1="487.0391" y2="507.0391"/><polygon fill="#181818" points="489,497.0391,493,507.0391,497,497.0391,493,501.0391" style="stroke:#181818;stroke-width:1.0;"/><line style="stroke:#181818;stroke-width:1.0;" x1="493" x2="493" y1="554.9766" y2="574.9766"/><polygon fill="#181818" points="489,564.9766,493,574.9766,497,564.9766,493,568.9766" style="stroke:#181818;stroke-width:1.0;"/><line style="stroke:#181818;stroke-width:1.0;" x1="97" x2="97" y1="262.9917" y2="267.9917"/><line style="stroke:#181818;stroke-width:1.0;" x1="97" x2="290" y1="267.9917" y2="267.9917"/><line style="stroke:#181818;stroke-width:1.0;" x1="290" x2="290" y1="267.9917" y2="282.9917"/><polygon fill="#181818" points="286,272.9917,290,282.9917,294,272.9917,290,276.9917" style="stroke:#181818;stroke-width:1.0;"/><line style="stroke:#181818;stroke-width:1.0;" x1="290" x2="290" y1="419.1016" y2="424.1016"/><line style="stroke:#181818;stroke-width:1.0;" x1="290" x2="493" y1="424.1016" y2="424.1016"/><line style="stroke:#181818;stroke-width:1.0;" x1="493" x2="493" y1="424.1016" y2="439.1016"/><polygon fill="#181818" points="489,429.1016,493,439.1016,497,429.1016,493,433.1016" style="stroke:#181818;stroke-width:1.0;"/><text fill="#000000" font-family="sans-serif" font-size="18" lengthAdjust="spacing" textLength="40" x="85.5" y="29.4531">shell</text><text fill="#000000" font-family="sans-serif" font-size="18" lengthAdjust="spacing" textLength="89" x="268" y="29.4531">filesystem</text><text fill="#000000" font-family="sans-serif" font-size="18" lengthAdjust="spacing" textLength="84" x="450" y="29.4531">javascript</text><!--SRC=[VL1DIyD04BtlhzXZ2x4_e05lGX4LGU-oJRRjrcrIiXj1o2MROZzifVHIj88eGakLNZnOY_wQQL9_Xfi8UX4lmynxyzuy9X0rodc0X2IUH8XLS0wY2uXU81f3z0pHEqGTKBCKKKjTyrZMg8DpczOzXECymhZulq1lW1g1UioGjvHDTvvCJMnjuvtT8qDt9UBOd9Q99zBfm7VgldMQzOT-rKIK2ufpoMqNL2-Fg6Ep2a91XN4gpeMaZG0LryjUCbb2ED2n8Bo3i0NHLNQg6myrkDWyh3xd0nFfeu9QJBgEWLc3LAc1EHEIELK3ILBcUlPJmC25Ge5Ags3-cb-3klonXN0M3_lVvkYl9upM7xT9PsZgg7LoHeJbiQRKKNNW9YUIdjZC4mZKF9MfLuYcsOz6IRyTBswqhAWrZDck9LqFmYag7U_lnUrLt9jeKaYt-GK0]--></g></svg>