<svg xmlns='http://www.w3.org/2000/svg' class="pikchr" viewBox="0 0 553.986 377.161">
<path d="M65,82L108,82A18 18 0 0 0 126 64A18 18 0 0 0 108 46L65,46A18 18 0 0 0 47 64A18 18 0 0 0 65 82Z"  style="fill:none;stroke-width:2.16;stroke:rgb(0,0,0);" />
<text x="87" y="64" text-anchor="middle" fill="rgb(0,0,0)" dominant-baseline="central">SBC</text>
<path d="M65,146L108,146A18 18 0 0 0 126 128A18 18 0 0 0 108 110L65,110A18 18 0 0 0 47 128A18 18 0 0 0 65 146Z"  style="fill:rgb(189,189,189);stroke-width:2.16;stroke:rgb(0,0,0);" />
<text x="87" y="128" text-anchor="middle" fill="rgb(0,0,0)" dominant-baseline="central">AAC</text>
<path d="M65,210L108,210A18 18 0 0 0 126 192A18 18 0 0 0 108 174L65,174A18 18 0 0 0 47 192A18 18 0 0 0 65 210Z"  style="fill:none;stroke-width:2.16;stroke:rgb(0,0,0);" />
<text x="87" y="192" text-anchor="middle" fill="rgb(0,0,0)" dominant-baseline="central">aptX</text>
<path d="M2,297L172,297L172,23L2,23Z"  style="fill:none;stroke-width:2.16;stroke:rgb(0,121,107);" />
<text x="87" y="12" text-anchor="middle" fill="rgb(0,0,0)" dominant-baseline="central">💻送信側</text>
<path d="M445,82L488,82A18 18 0 0 0 506 64A18 18 0 0 0 488 46L445,46A18 18 0 0 0 427 64A18 18 0 0 0 445 82Z"  style="fill:none;stroke-width:2.16;stroke:rgb(0,0,0);" />
<text x="466" y="64" text-anchor="middle" fill="rgb(0,0,0)" dominant-baseline="central">SBC</text>
<path d="M445,210L488,210A18 18 0 0 0 506 192A18 18 0 0 0 488 174L445,174A18 18 0 0 0 427 192A18 18 0 0 0 445 210Z"  style="fill:none;stroke-width:2.16;stroke:rgb(0,0,0);" />
<text x="466" y="192" text-anchor="middle" fill="rgb(0,0,0)" dominant-baseline="central">aptX</text>
<path d="M445,275L488,275A18 18 0 0 0 506 257A18 18 0 0 0 488 239L445,239A18 18 0 0 0 427 257A18 18 0 0 0 445 275Z"  style="fill:rgb(189,189,189);stroke-width:2.16;stroke:rgb(0,0,0);" />
<text x="466" y="257" text-anchor="middle" fill="rgb(0,0,0)" dominant-baseline="central">LDAC</text>
<path d="M381,297L551,297L551,23L381,23Z"  style="fill:none;stroke-width:2.16;stroke:rgb(123,31,162);" />
<text x="466" y="12" text-anchor="middle" fill="rgb(0,0,0)" dominant-baseline="central">🎧受信側</text>
<polygon points="126,64 138,59 138,68" style="fill:rgb(0,0,0)"/>
<polygon points="427,64 415,68 415,59" style="fill:rgb(0,0,0)"/>
<path d="M132,64L421,64"  style="fill:none;stroke-width:2.16;stroke:rgb(0,0,0);stroke-dasharray:7.2,7.2;" />
<circle cx="276" cy="64" r="25.2"  style="fill:none;stroke-width:3.24;stroke:rgb(239,83,80);" />
<polygon points="126,192 138,188 138,197" style="fill:rgb(0,0,0)"/>
<polygon points="427,192 415,197 415,188" style="fill:rgb(0,0,0)"/>
<path d="M132,192L421,192"  style="fill:none;stroke-width:2.16;stroke:rgb(0,0,0);stroke-dasharray:7.2,7.2;" />
<circle cx="276" cy="192" r="25.2"  style="fill:none;stroke-width:3.24;stroke:rgb(239,83,80);" />
<text x="276" y="334" text-anchor="middle" fill="rgb(0,0,0)" dominant-baseline="central">この例では SBC か aptX のどちらかだけが利用できる。 </text>
<text x="276" y="364" text-anchor="middle" fill="rgb(0,0,0)" dominant-baseline="central">利用するコーデックは性能が高い方が自動的に選ばれる（つまり aptX）</text>
</svg>

