<?xml version="1.0" encoding="us-ascii" standalone="no"?><svg xmlns="http://www.w3.org/2000/svg" xmlns:xlink="http://www.w3.org/1999/xlink" contentStyleType="text/css" height="658px" preserveAspectRatio="none" style="width:834px;height:658px;background:#FFFFFF;" version="1.1" viewBox="0 0 834 658" width="834px" zoomAndPan="magnify"><defs/><g><text fill="#000000" font-family="sans-serif" font-size="14" font-weight="bold" lengthAdjust="spacing" textLength="201" x="309.5" y="22.9951">&#12480;&#12452;&#12527;&#12473;&#12459;&#12540;&#12524;&#12483;&#12488; &#12463;&#12521;&#12471;&#12483;&#12463;</text><!--cluster Classic--><g id="cluster_Classic"><rect fill="none" height="608" rx="2.5" ry="2.5" style="stroke:#181818;stroke-width:1.0;" width="821" x="7" y="44.2969"/><text fill="#000000" font-family="sans-serif" font-size="14" font-weight="bold" lengthAdjust="spacing" textLength="55" x="390" y="59.292">Classic</text></g><g id="elem_race4"><rect fill="#F1F1F1" height="121.7813" style="stroke:#181818;stroke-width:0.5;" width="112" x="31" y="83.2969"/><text fill="#000000" font-family="sans-serif" font-size="14" lengthAdjust="spacing" textLength="98" x="38" y="98.292">&#12481;&#12517;&#12540;&#12522;&#12483;&#12503;&#36062;</text><line style="stroke:#181818;stroke-width:1.0;" x1="31" x2="143" y1="103.5938" y2="103.5938"/><text fill="#000000" font-family="sans-serif" font-size="14" lengthAdjust="spacing" textLength="56" x="36" y="118.5889">&#12473;&#12500;&#12540;&#12489;</text><text fill="#000000" font-family="sans-serif" font-size="14" lengthAdjust="spacing" textLength="23" x="102" y="118.5889">D+</text><line style="stroke:#181818;stroke-width:1.0;" x1="97" x2="97" y1="103.5938" y2="123.8906"/><line style="stroke:#181818;stroke-width:1.0;" x1="31" x2="143" y1="123.8906" y2="123.8906"/><text fill="#000000" font-family="sans-serif" font-size="14" lengthAdjust="spacing" textLength="56" x="36" y="138.8857">&#12473;&#12479;&#12511;&#12490;</text><text fill="#000000" font-family="sans-serif" font-size="14" lengthAdjust="spacing" textLength="21" x="102" y="138.8857">E+</text><line style="stroke:#181818;stroke-width:1.0;" x1="97" x2="97" y1="123.8906" y2="144.1875"/><line style="stroke:#181818;stroke-width:1.0;" x1="31" x2="143" y1="144.1875" y2="144.1875"/><text fill="#000000" font-family="sans-serif" font-size="14" lengthAdjust="spacing" textLength="42" x="43" y="159.1826">&#12497;&#12527;&#12540;</text><text fill="#000000" font-family="sans-serif" font-size="14" lengthAdjust="spacing" textLength="20" x="102" y="159.1826">F+</text><line style="stroke:#181818;stroke-width:1.0;" x1="97" x2="97" y1="144.1875" y2="164.4844"/><line style="stroke:#181818;stroke-width:1.0;" x1="31" x2="143" y1="164.4844" y2="164.4844"/><text fill="#000000" font-family="sans-serif" font-size="14" lengthAdjust="spacing" textLength="28" x="50" y="179.4795">&#26681;&#24615;</text><text fill="#000000" font-family="sans-serif" font-size="14" lengthAdjust="spacing" textLength="20" x="102" y="179.4795">F+</text><line style="stroke:#181818;stroke-width:1.0;" x1="97" x2="97" y1="164.4844" y2="184.7813"/><line style="stroke:#181818;stroke-width:1.0;" x1="31" x2="143" y1="184.7813" y2="184.7813"/><text fill="#000000" font-family="sans-serif" font-size="14" lengthAdjust="spacing" textLength="28" x="50" y="199.7764">&#36066;&#12373;</text><text fill="#000000" font-family="sans-serif" font-size="14" lengthAdjust="spacing" textLength="20" x="102" y="199.7764">F+</text><line style="stroke:#181818;stroke-width:1.0;" x1="97" x2="97" y1="184.7813" y2="205.0781"/></g><g id="elem_race5"><rect fill="#F1F1F1" height="121.7813" style="stroke:#181818;stroke-width:0.5;" width="97" x="282.5" y="83.2969"/><text fill="#000000" font-family="sans-serif" font-size="14" lengthAdjust="spacing" textLength="42" x="310" y="98.292">&#26716;&#33457;&#36062;</text><line style="stroke:#181818;stroke-width:1.0;" x1="282.5" x2="379.5" y1="103.5938" y2="103.5938"/><text fill="#000000" font-family="sans-serif" font-size="14" lengthAdjust="spacing" textLength="56" x="287.5" y="118.5889">&#12473;&#12500;&#12540;&#12489;</text><text fill="#000000" font-family="sans-serif" font-size="14" lengthAdjust="spacing" textLength="10" x="353.5" y="118.5889">C</text><line style="stroke:#181818;stroke-width:1.0;" x1="348.5" x2="348.5" y1="103.5938" y2="123.8906"/><line style="stroke:#181818;stroke-width:1.0;" x1="282.5" x2="379.5" y1="123.8906" y2="123.8906"/><text fill="#000000" font-family="sans-serif" font-size="14" lengthAdjust="spacing" textLength="56" x="287.5" y="138.8857">&#12473;&#12479;&#12511;&#12490;</text><text fill="#000000" font-family="sans-serif" font-size="14" lengthAdjust="spacing" textLength="21" x="353.5" y="138.8857">E+</text><line style="stroke:#181818;stroke-width:1.0;" x1="348.5" x2="348.5" y1="123.8906" y2="144.1875"/><line style="stroke:#181818;stroke-width:1.0;" x1="282.5" x2="379.5" y1="144.1875" y2="144.1875"/><text fill="#000000" font-family="sans-serif" font-size="14" lengthAdjust="spacing" textLength="42" x="294.5" y="159.1826">&#12497;&#12527;&#12540;</text><text fill="#000000" font-family="sans-serif" font-size="14" lengthAdjust="spacing" textLength="20" x="353.5" y="159.1826">F+</text><line style="stroke:#181818;stroke-width:1.0;" x1="348.5" x2="348.5" y1="144.1875" y2="164.4844"/><line style="stroke:#181818;stroke-width:1.0;" x1="282.5" x2="379.5" y1="164.4844" y2="164.4844"/><text fill="#000000" font-family="sans-serif" font-size="14" lengthAdjust="spacing" textLength="28" x="301.5" y="179.4795">&#26681;&#24615;</text><text fill="#000000" font-family="sans-serif" font-size="14" lengthAdjust="spacing" textLength="20" x="353.5" y="179.4795">F+</text><line style="stroke:#181818;stroke-width:1.0;" x1="348.5" x2="348.5" y1="164.4844" y2="184.7813"/><line style="stroke:#181818;stroke-width:1.0;" x1="282.5" x2="379.5" y1="184.7813" y2="184.7813"/><text fill="#000000" font-family="sans-serif" font-size="14" lengthAdjust="spacing" textLength="28" x="301.5" y="199.7764">&#36066;&#12373;</text><text fill="#000000" font-family="sans-serif" font-size="14" lengthAdjust="spacing" textLength="20" x="353.5" y="199.7764">F+</text><line style="stroke:#181818;stroke-width:1.0;" x1="348.5" x2="348.5" y1="184.7813" y2="205.0781"/></g><!--class succesor1--><g id="elem_succesor1"><rect codeLine="21" fill="#F1F1F1" height="64.2969" id="succesor1" rx="2.5" ry="2.5" style="stroke:#181818;stroke-width:0.5;" width="119" x="60.5" y="271.1469"/><ellipse cx="76.85" cy="287.1469" fill="#E3664A" rx="11" ry="11" style="stroke:#181818;stroke-width:1.0;"/><path d="M78.9281,287.6156 Q78.9281,286.6781 78.5063,286.1469 Q78.0844,285.6156 77.3344,285.6156 Q76.6,285.6156 76.1781,286.1469 Q75.7719,286.6781 75.7719,287.6156 Q75.7719,288.5688 76.1781,289.1 Q76.6,289.6313 77.3344,289.6313 Q78.0844,289.6313 78.5063,289.1 Q78.9281,288.5688 78.9281,287.6156 Z M80.475,291.0219 L78.85,291.0219 L78.85,290.35 Q78.5219,290.7875 78.1,290.9906 Q77.6781,291.1938 77.0688,291.1938 Q75.7094,291.1938 74.8813,290.225 Q74.0531,289.2406 74.0531,287.6156 Q74.0531,286.0219 74.8813,285.0531 Q75.7094,284.0688 77.0688,284.0688 Q77.6625,284.0688 78.1156,284.2719 Q78.5688,284.475 78.85,284.8656 L78.85,284.5219 Q78.85,283.3969 78.225,282.7875 Q77.6,282.1625 76.4594,282.1625 Q74.7406,282.1625 73.6469,283.6938 Q72.5531,285.2094 72.5531,287.6469 Q72.5531,290.1938 73.8031,291.6938 Q75.0688,293.1938 77.1781,293.1938 Q77.8344,293.1938 78.4594,293.0063 Q79.0844,292.8188 79.6625,292.4281 L80.4281,293.8813 Q79.7563,294.3344 78.9594,294.5531 Q78.1625,294.7875 77.2563,294.7875 Q74.35,294.7875 72.6156,292.85 Q70.8969,290.9281 70.8969,287.6469 Q70.8969,284.4281 72.4438,282.5063 Q74.0063,280.5688 76.5688,280.5688 Q78.3656,280.5688 79.4125,281.6625 Q80.475,282.7563 80.475,284.6313 L80.475,291.0219 Z " fill="#000000"/><text fill="#000000" font-family="sans-serif" font-size="14" lengthAdjust="spacing" textLength="84" x="91.15" y="291.9936">&#32153;&#25215;&#12452;&#12505;&#12531;&#12488;</text><line style="stroke:#181818;stroke-width:0.5;" x1="61.5" x2="178.5" y1="303.1469" y2="303.1469"/><text fill="#000000" font-family="sans-serif" font-size="14" lengthAdjust="spacing" textLength="107" x="66.5" y="320.142">4&#26376;&#21069;&#21322;&#12398;&#38283;&#22987;&#21069;</text><line style="stroke:#181818;stroke-width:0.5;" x1="61.5" x2="178.5" y1="327.4438" y2="327.4438"/></g><ellipse cx="237" cy="143.7969" fill="#181818" rx="2" ry="2" style="stroke:#181818;stroke-width:1.0;"/><g id="elem_skill1"><rect fill="#F1F1F1" height="40.5938" style="stroke:#181818;stroke-width:0.5;" width="177" x="222.5" y="283.2969"/><text fill="#000000" font-family="sans-serif" font-size="14" lengthAdjust="spacing" textLength="70" x="276" y="298.292">&#12473;&#12461;&#12523;&#21462;&#24471;</text><line style="stroke:#181818;stroke-width:1.0;" x1="222.5" x2="399.5" y1="303.5938" y2="303.5938"/><text fill="#000000" font-family="sans-serif" font-size="14" lengthAdjust="spacing" textLength="61" x="227.5" y="318.5889">&#36895;&#24230;UP&#31995;</text><text fill="#000000" font-family="sans-serif" font-size="14" lengthAdjust="spacing" textLength="96" x="298.5" y="318.5889">&#12467;&#12540;&#12490;&#12540;&#24039;&#32773;&#9675;</text><line style="stroke:#181818;stroke-width:1.0;" x1="293.5" x2="293.5" y1="303.5938" y2="323.8906"/></g><!--class anno1--><g id="elem_anno1"><rect codeLine="30" fill="#F1F1F1" height="48" id="anno1" rx="2.5" ry="2.5" style="stroke:#181818;stroke-width:0.5;" width="144" x="443" y="279.2969"/><ellipse cx="458" cy="295.2969" fill="#E3664A" rx="11" ry="11" style="stroke:#181818;stroke-width:1.0;"/><path d="M460.0781,295.7656 Q460.0781,294.8281 459.6563,294.2969 Q459.2344,293.7656 458.4844,293.7656 Q457.75,293.7656 457.3281,294.2969 Q456.9219,294.8281 456.9219,295.7656 Q456.9219,296.7188 457.3281,297.25 Q457.75,297.7813 458.4844,297.7813 Q459.2344,297.7813 459.6563,297.25 Q460.0781,296.7188 460.0781,295.7656 Z M461.625,299.1719 L460,299.1719 L460,298.5 Q459.6719,298.9375 459.25,299.1406 Q458.8281,299.3438 458.2188,299.3438 Q456.8594,299.3438 456.0313,298.375 Q455.2031,297.3906 455.2031,295.7656 Q455.2031,294.1719 456.0313,293.2031 Q456.8594,292.2188 458.2188,292.2188 Q458.8125,292.2188 459.2656,292.4219 Q459.7188,292.625 460,293.0156 L460,292.6719 Q460,291.5469 459.375,290.9375 Q458.75,290.3125 457.6094,290.3125 Q455.8906,290.3125 454.7969,291.8438 Q453.7031,293.3594 453.7031,295.7969 Q453.7031,298.3438 454.9531,299.8438 Q456.2188,301.3438 458.3281,301.3438 Q458.9844,301.3438 459.6094,301.1563 Q460.2344,300.9688 460.8125,300.5781 L461.5781,302.0313 Q460.9063,302.4844 460.1094,302.7031 Q459.3125,302.9375 458.4063,302.9375 Q455.5,302.9375 453.7656,301 Q452.0469,299.0781 452.0469,295.7969 Q452.0469,292.5781 453.5938,290.6563 Q455.1563,288.7188 457.7188,288.7188 Q459.5156,288.7188 460.5625,289.8125 Q461.625,290.9063 461.625,292.7813 L461.625,299.1719 Z " fill="#000000"/><text fill="#000000" font-family="sans-serif" font-size="14" lengthAdjust="spacing" textLength="42" x="472" y="300.1436">&#20316;&#25126;&#12434;</text><text fill="#000000" font-family="sans-serif" font-size="14" font-weight="bold" lengthAdjust="spacing" textLength="28" x="514" y="300.1436">&#20808;&#34892;</text><text fill="#000000" font-family="sans-serif" font-size="14" lengthAdjust="spacing" textLength="42" x="542" y="300.1436">&#12395;&#22793;&#26356;</text><line style="stroke:#181818;stroke-width:0.5;" x1="444" x2="586" y1="311.2969" y2="311.2969"/><line style="stroke:#181818;stroke-width:0.5;" x1="444" x2="586" y1="319.2969" y2="319.2969"/></g><g id="elem_race6"><rect fill="#F1F1F1" height="121.7813" style="stroke:#181818;stroke-width:0.5;" width="87" x="587.5" y="83.2969"/><text fill="#000000" font-family="sans-serif" font-size="14" lengthAdjust="spacing" textLength="56" x="603" y="98.292">&#12458;&#12540;&#12463;&#12473;</text><line style="stroke:#181818;stroke-width:1.0;" x1="587.5" x2="674.5" y1="103.5938" y2="103.5938"/><text fill="#000000" font-family="sans-serif" font-size="14" lengthAdjust="spacing" textLength="56" x="592.5" y="118.5889">&#12473;&#12500;&#12540;&#12489;</text><text fill="#000000" font-family="sans-serif" font-size="14" lengthAdjust="spacing" textLength="10" x="658.5" y="118.5889">C</text><line style="stroke:#181818;stroke-width:1.0;" x1="653.5" x2="653.5" y1="103.5938" y2="123.8906"/><line style="stroke:#181818;stroke-width:1.0;" x1="587.5" x2="674.5" y1="123.8906" y2="123.8906"/><text fill="#000000" font-family="sans-serif" font-size="14" lengthAdjust="spacing" textLength="56" x="592.5" y="138.8857">&#12473;&#12479;&#12511;&#12490;</text><text fill="#000000" font-family="sans-serif" font-size="14" lengthAdjust="spacing" textLength="11" x="658.5" y="138.8857">D</text><line style="stroke:#181818;stroke-width:1.0;" x1="653.5" x2="653.5" y1="123.8906" y2="144.1875"/><line style="stroke:#181818;stroke-width:1.0;" x1="587.5" x2="674.5" y1="144.1875" y2="144.1875"/><text fill="#000000" font-family="sans-serif" font-size="14" lengthAdjust="spacing" textLength="42" x="599.5" y="159.1826">&#12497;&#12527;&#12540;</text><text fill="#000000" font-family="sans-serif" font-size="14" lengthAdjust="spacing" textLength="9" x="658.5" y="159.1826">E</text><line style="stroke:#181818;stroke-width:1.0;" x1="653.5" x2="653.5" y1="144.1875" y2="164.4844"/><line style="stroke:#181818;stroke-width:1.0;" x1="587.5" x2="674.5" y1="164.4844" y2="164.4844"/><text fill="#000000" font-family="sans-serif" font-size="14" lengthAdjust="spacing" textLength="28" x="606.5" y="179.4795">&#26681;&#24615;</text><text fill="#000000" font-family="sans-serif" font-size="14" lengthAdjust="spacing" textLength="9" x="658.5" y="179.4795">E</text><line style="stroke:#181818;stroke-width:1.0;" x1="653.5" x2="653.5" y1="164.4844" y2="184.7813"/><line style="stroke:#181818;stroke-width:1.0;" x1="587.5" x2="674.5" y1="184.7813" y2="184.7813"/><text fill="#000000" font-family="sans-serif" font-size="14" lengthAdjust="spacing" textLength="28" x="606.5" y="199.7764">&#36066;&#12373;</text><text fill="#000000" font-family="sans-serif" font-size="14" lengthAdjust="spacing" textLength="9" x="658.5" y="199.7764">E</text><line style="stroke:#181818;stroke-width:1.0;" x1="653.5" x2="653.5" y1="184.7813" y2="205.0781"/></g><ellipse cx="515" cy="143.7969" fill="#181818" rx="2" ry="2" style="stroke:#181818;stroke-width:1.0;"/><g id="elem_skill2"><rect fill="#F1F1F1" height="60.8906" style="stroke:#181818;stroke-width:0.5;" width="174" x="630" y="273.2969"/><text fill="#000000" font-family="sans-serif" font-size="14" lengthAdjust="spacing" textLength="70" x="682" y="288.292">&#12473;&#12461;&#12523;&#21462;&#24471;</text><line style="stroke:#181818;stroke-width:1.0;" x1="630" x2="804" y1="293.5938" y2="293.5938"/><text fill="#000000" font-family="sans-serif" font-size="14" lengthAdjust="spacing" textLength="42" x="649" y="308.5889">&#22238;&#24489;&#31995;</text><text fill="#000000" font-family="sans-serif" font-size="14" lengthAdjust="spacing" textLength="56" x="715" y="308.5889">&#26628;&#39178;&#35036;&#32102;</text><line style="stroke:#181818;stroke-width:1.0;" x1="710" x2="710" y1="293.5938" y2="313.8906"/><line style="stroke:#181818;stroke-width:1.0;" x1="630" x2="804" y1="313.8906" y2="313.8906"/><text fill="#000000" font-family="sans-serif" font-size="14" lengthAdjust="spacing" textLength="70" x="635" y="328.8857">&#20301;&#32622;&#21462;&#12426;&#31995;</text><text fill="#000000" font-family="sans-serif" font-size="14" lengthAdjust="spacing" textLength="84" x="715" y="328.8857">&#12486;&#12531;&#12509;&#12450;&#12483;&#12503;</text><line style="stroke:#181818;stroke-width:1.0;" x1="710" x2="710" y1="313.8906" y2="334.1875"/></g><!--entity summer1a--><g id="elem_summer1a"><ellipse cx="775" cy="143.7969" fill="#F1F1F1" rx="8" ry="8" style="stroke:#181818;stroke-width:0.5;"/><text fill="#000000" font-family="sans-serif" font-size="14" lengthAdjust="spacing" textLength="42" x="754" y="173.792">&#22799;&#21512;&#23487;</text></g><!--entity summer1b--><g id="elem_summer1b"><ellipse cx="32" cy="462.7969" fill="#F1F1F1" rx="8" ry="8" style="stroke:#181818;stroke-width:0.5;"/><text fill="#000000" font-family="sans-serif" font-size="14" lengthAdjust="spacing" textLength="42" x="11" y="492.792">&#22799;&#21512;&#23487;</text></g><g id="elem_race7"><rect fill="#F1F1F1" height="121.7813" style="stroke:#181818;stroke-width:0.5;" width="99" x="84.5" y="402.2969"/><text fill="#000000" font-family="sans-serif" font-size="14" lengthAdjust="spacing" textLength="42" x="113" y="417.292">&#31179;&#33775;&#36062;</text><line style="stroke:#181818;stroke-width:1.0;" x1="84.5" x2="183.5" y1="422.5938" y2="422.5938"/><text fill="#000000" font-family="sans-serif" font-size="14" lengthAdjust="spacing" textLength="56" x="89.5" y="437.5889">&#12473;&#12500;&#12540;&#12489;</text><text fill="#000000" font-family="sans-serif" font-size="14" lengthAdjust="spacing" textLength="10" x="155.5" y="437.5889">C</text><line style="stroke:#181818;stroke-width:1.0;" x1="150.5" x2="150.5" y1="422.5938" y2="442.8906"/><line style="stroke:#181818;stroke-width:1.0;" x1="84.5" x2="183.5" y1="442.8906" y2="442.8906"/><text fill="#000000" font-family="sans-serif" font-size="14" lengthAdjust="spacing" textLength="56" x="89.5" y="457.8857">&#12473;&#12479;&#12511;&#12490;</text><text fill="#000000" font-family="sans-serif" font-size="14" lengthAdjust="spacing" textLength="23" x="155.5" y="457.8857">D+</text><line style="stroke:#181818;stroke-width:1.0;" x1="150.5" x2="150.5" y1="442.8906" y2="463.1875"/><line style="stroke:#181818;stroke-width:1.0;" x1="84.5" x2="183.5" y1="463.1875" y2="463.1875"/><text fill="#000000" font-family="sans-serif" font-size="14" lengthAdjust="spacing" textLength="42" x="96.5" y="478.1826">&#12497;&#12527;&#12540;</text><text fill="#000000" font-family="sans-serif" font-size="14" lengthAdjust="spacing" textLength="21" x="155.5" y="478.1826">E+</text><line style="stroke:#181818;stroke-width:1.0;" x1="150.5" x2="150.5" y1="463.1875" y2="483.4844"/><line style="stroke:#181818;stroke-width:1.0;" x1="84.5" x2="183.5" y1="483.4844" y2="483.4844"/><text fill="#000000" font-family="sans-serif" font-size="14" lengthAdjust="spacing" textLength="28" x="103.5" y="498.4795">&#26681;&#24615;</text><text fill="#000000" font-family="sans-serif" font-size="14" lengthAdjust="spacing" textLength="9" x="155.5" y="498.4795">E</text><line style="stroke:#181818;stroke-width:1.0;" x1="150.5" x2="150.5" y1="483.4844" y2="503.7813"/><line style="stroke:#181818;stroke-width:1.0;" x1="84.5" x2="183.5" y1="503.7813" y2="503.7813"/><text fill="#000000" font-family="sans-serif" font-size="14" lengthAdjust="spacing" textLength="28" x="103.5" y="518.7764">&#36066;&#12373;</text><text fill="#000000" font-family="sans-serif" font-size="14" lengthAdjust="spacing" textLength="9" x="155.5" y="518.7764">E</text><line style="stroke:#181818;stroke-width:1.0;" x1="150.5" x2="150.5" y1="503.7813" y2="524.0781"/></g><g id="elem_skill3"><rect fill="#F1F1F1" height="40.5938" style="stroke:#181818;stroke-width:0.5;" width="144" x="62" y="592.2969"/><text fill="#000000" font-family="sans-serif" font-size="14" lengthAdjust="spacing" textLength="70" x="99" y="607.292">&#12473;&#12461;&#12523;&#21462;&#24471;</text><line style="stroke:#181818;stroke-width:1.0;" x1="62" x2="206" y1="612.5938" y2="612.5938"/><text fill="#000000" font-family="sans-serif" font-size="14" lengthAdjust="spacing" textLength="56" x="67" y="627.5889">&#12497;&#12483;&#12471;&#12502;</text><text fill="#000000" font-family="sans-serif" font-size="14" lengthAdjust="spacing" textLength="68" x="133" y="627.5889">&#23550;&#25239;&#24847;&#35672;&#9675;</text><line style="stroke:#181818;stroke-width:1.0;" x1="128" x2="128" y1="612.5938" y2="632.8906"/></g><g id="elem_race8"><rect fill="#F1F1F1" height="121.7813" style="stroke:#181818;stroke-width:0.5;" width="126" x="283" y="402.2969"/><text fill="#000000" font-family="sans-serif" font-size="14" lengthAdjust="spacing" textLength="112" x="290" y="417.292">&#12456;&#12522;&#12470;&#12505;&#12473;&#22899;&#29579;&#26479;</text><line style="stroke:#181818;stroke-width:1.0;" x1="283" x2="409" y1="422.5938" y2="422.5938"/><text fill="#000000" font-family="sans-serif" font-size="14" lengthAdjust="spacing" textLength="56" x="288" y="437.5889">&#12473;&#12500;&#12540;&#12489;</text><text fill="#000000" font-family="sans-serif" font-size="14" lengthAdjust="spacing" textLength="10" x="354" y="437.5889">C</text><line style="stroke:#181818;stroke-width:1.0;" x1="349" x2="349" y1="422.5938" y2="442.8906"/><line style="stroke:#181818;stroke-width:1.0;" x1="283" x2="409" y1="442.8906" y2="442.8906"/><text fill="#000000" font-family="sans-serif" font-size="14" lengthAdjust="spacing" textLength="56" x="288" y="457.8857">&#12473;&#12479;&#12511;&#12490;</text><text fill="#000000" font-family="sans-serif" font-size="14" lengthAdjust="spacing" textLength="23" x="354" y="457.8857">D+</text><line style="stroke:#181818;stroke-width:1.0;" x1="349" x2="349" y1="442.8906" y2="463.1875"/><line style="stroke:#181818;stroke-width:1.0;" x1="283" x2="409" y1="463.1875" y2="463.1875"/><text fill="#000000" font-family="sans-serif" font-size="14" lengthAdjust="spacing" textLength="42" x="295" y="478.1826">&#12497;&#12527;&#12540;</text><text fill="#000000" font-family="sans-serif" font-size="14" lengthAdjust="spacing" textLength="21" x="354" y="478.1826">E+</text><line style="stroke:#181818;stroke-width:1.0;" x1="349" x2="349" y1="463.1875" y2="483.4844"/><line style="stroke:#181818;stroke-width:1.0;" x1="283" x2="409" y1="483.4844" y2="483.4844"/><text fill="#000000" font-family="sans-serif" font-size="14" lengthAdjust="spacing" textLength="28" x="302" y="498.4795">&#26681;&#24615;</text><text fill="#000000" font-family="sans-serif" font-size="14" lengthAdjust="spacing" textLength="9" x="354" y="498.4795">E</text><line style="stroke:#181818;stroke-width:1.0;" x1="349" x2="349" y1="483.4844" y2="503.7813"/><line style="stroke:#181818;stroke-width:1.0;" x1="283" x2="409" y1="503.7813" y2="503.7813"/><text fill="#000000" font-family="sans-serif" font-size="14" lengthAdjust="spacing" textLength="28" x="302" y="518.7764">&#36066;&#12373;</text><text fill="#000000" font-family="sans-serif" font-size="14" lengthAdjust="spacing" textLength="9" x="354" y="518.7764">E</text><line style="stroke:#181818;stroke-width:1.0;" x1="349" x2="349" y1="503.7813" y2="524.0781"/></g><g id="elem_race9"><rect fill="#F1F1F1" height="121.7813" style="stroke:#181818;stroke-width:0.5;" width="98" x="509" y="402.2969"/><text fill="#000000" font-family="sans-serif" font-size="14" lengthAdjust="spacing" textLength="84" x="516" y="417.292">&#26377;&#39340;&#35352;&#24565;(op)</text><line style="stroke:#181818;stroke-width:1.0;" x1="509" x2="607" y1="422.5938" y2="422.5938"/><text fill="#000000" font-family="sans-serif" font-size="14" lengthAdjust="spacing" textLength="56" x="514" y="437.5889">&#12473;&#12500;&#12540;&#12489;</text><text fill="#000000" font-family="sans-serif" font-size="14" lengthAdjust="spacing" textLength="10" x="580" y="437.5889">C</text><line style="stroke:#181818;stroke-width:1.0;" x1="575" x2="575" y1="422.5938" y2="442.8906"/><line style="stroke:#181818;stroke-width:1.0;" x1="509" x2="607" y1="442.8906" y2="442.8906"/><text fill="#000000" font-family="sans-serif" font-size="14" lengthAdjust="spacing" textLength="56" x="514" y="457.8857">&#12473;&#12479;&#12511;&#12490;</text><text fill="#000000" font-family="sans-serif" font-size="14" lengthAdjust="spacing" textLength="10" x="580" y="457.8857">C</text><line style="stroke:#181818;stroke-width:1.0;" x1="575" x2="575" y1="442.8906" y2="463.1875"/><line style="stroke:#181818;stroke-width:1.0;" x1="509" x2="607" y1="463.1875" y2="463.1875"/><text fill="#000000" font-family="sans-serif" font-size="14" lengthAdjust="spacing" textLength="42" x="521" y="478.1826">&#12497;&#12527;&#12540;</text><text fill="#000000" font-family="sans-serif" font-size="14" lengthAdjust="spacing" textLength="21" x="580" y="478.1826">E+</text><line style="stroke:#181818;stroke-width:1.0;" x1="575" x2="575" y1="463.1875" y2="483.4844"/><line style="stroke:#181818;stroke-width:1.0;" x1="509" x2="607" y1="483.4844" y2="483.4844"/><text fill="#000000" font-family="sans-serif" font-size="14" lengthAdjust="spacing" textLength="28" x="528" y="498.4795">&#26681;&#24615;</text><text fill="#000000" font-family="sans-serif" font-size="14" lengthAdjust="spacing" textLength="9" x="580" y="498.4795">E</text><line style="stroke:#181818;stroke-width:1.0;" x1="575" x2="575" y1="483.4844" y2="503.7813"/><line style="stroke:#181818;stroke-width:1.0;" x1="509" x2="607" y1="503.7813" y2="503.7813"/><text fill="#000000" font-family="sans-serif" font-size="14" lengthAdjust="spacing" textLength="28" x="528" y="518.7764">&#36066;&#12373;</text><text fill="#000000" font-family="sans-serif" font-size="14" lengthAdjust="spacing" textLength="21" x="580" y="518.7764">E+</text><line style="stroke:#181818;stroke-width:1.0;" x1="575" x2="575" y1="503.7813" y2="524.0781"/></g><g id="elem_skill4"><rect fill="#F1F1F1" height="40.5938" style="stroke:#181818;stroke-width:0.5;" width="174" x="471" y="592.2969"/><text fill="#000000" font-family="sans-serif" font-size="14" lengthAdjust="spacing" textLength="70" x="523" y="607.292">&#12473;&#12461;&#12523;&#21462;&#24471;</text><line style="stroke:#181818;stroke-width:1.0;" x1="471" x2="645" y1="612.5938" y2="612.5938"/><text fill="#000000" font-family="sans-serif" font-size="14" lengthAdjust="spacing" textLength="42" x="476" y="627.5889">&#22238;&#24489;&#31995;</text><text fill="#000000" font-family="sans-serif" font-size="14" lengthAdjust="spacing" textLength="112" x="528" y="627.5889">&#20870;&#24359;&#12398;&#12510;&#12456;&#12473;&#12488;&#12525;</text><line style="stroke:#181818;stroke-width:1.0;" x1="523" x2="523" y1="612.5938" y2="632.8906"/></g><!--entity race10--><g id="elem_race10"><ellipse cx="708" cy="462.7969" fill="#F1F1F1" rx="8" ry="8" style="stroke:#181818;stroke-width:0.5;"/><text fill="#000000" font-family="sans-serif" font-size="14" lengthAdjust="spacing" textLength="42" x="687" y="492.792">&#22823;&#38442;&#26479;</text></g><!--link race4 to apoint7--><g id="link_race4_apoint7"><path d="M150.61,143.7969 C186.07,143.7969 224.99,143.7969 234.71,143.7969 " fill="none" id="race4-apoint7" style="stroke:#181818;stroke-width:1.0;"/><text fill="#000000" font-family="sans-serif" font-size="13" lengthAdjust="spacing" textLength="47" x="169.5" y="136.8638">1&#12479;&#12540;&#12531;</text></g><!--link apoint7 to race5--><g id="link_apoint7_race5"><path d="M239.2,143.7969 C251.04,143.7969 256.87,143.7969 268.7,143.7969 " fill="none" id="apoint7-to-race5" style="stroke:#181818;stroke-width:1.0;"/><polygon fill="#181818" points="274.7,143.7969,265.7,139.7969,269.7,143.7969,265.7,147.7969,274.7,143.7969" style="stroke:#181818;stroke-width:1.0;"/></g><!--link apoint7 to succesor1--><g id="link_apoint7_succesor1"><path d="M236.25,145.8069 C229.29,155.1769 175.22,227.9569 143.33,270.8869 " fill="none" id="apoint7-succesor1" style="stroke:#181818;stroke-width:1.0;"/></g><!--reverse link race5 to skill1--><g id="link_race5_skill1"><path codeLine="28" d="M322.2237,213.899 C319.0037,239.239 316.26,260.8569 313.88,279.6169 " fill="none" id="race5-backto-skill1" style="stroke:#181818;stroke-width:1.0;stroke-dasharray:7.0,7.0;"/><polygon fill="#181818" points="322.98,207.9469,317.8774,216.3708,322.3497,212.907,325.8136,217.3793,322.98,207.9469" style="stroke:#181818;stroke-width:1.0;"/></g><!--link race5 to apoint17--><g id="link_race5_apoint17"><path d="M387.46,143.7969 C436.05,143.7969 500.28,143.7969 512.82,143.7969 " fill="none" id="race5-apoint17" style="stroke:#181818;stroke-width:1.0;"/><text fill="#000000" font-family="sans-serif" font-size="13" lengthAdjust="spacing" textLength="47" x="426.75" y="136.8638">2&#12479;&#12540;&#12531;</text></g><!--link apoint17 to race6--><g id="link_apoint17_race6"><path d="M517.27,143.7969 C538.15,143.7969 553.03,143.7969 573.91,143.7969 " fill="none" id="apoint17-to-race6" style="stroke:#181818;stroke-width:1.0;"/><polygon fill="#181818" points="579.91,143.7969,570.91,139.7969,574.91,143.7969,570.91,147.7969,579.91,143.7969" style="stroke:#181818;stroke-width:1.0;"/></g><!--link apoint17 to anno1--><g id="link_apoint17_anno1"><path d="M515,146.1569 C515,157.6169 515,238.4769 515,279.1169 " fill="none" id="apoint17-anno1" style="stroke:#181818;stroke-width:1.0;stroke-dasharray:7.0,7.0;"/></g><!--reverse link race6 to skill2--><g id="link_race6_skill2"><path codeLine="46" d="M668.3556,213.2129 C679.8556,234.2729 689.32,251.6069 699.04,269.4069 " fill="none" id="race6-backto-skill2" style="stroke:#181818;stroke-width:1.0;stroke-dasharray:7.0,7.0;"/><polygon fill="#181818" points="665.48,207.9469,666.2827,217.763,667.8763,212.3352,673.304,213.9289,665.48,207.9469" style="stroke:#181818;stroke-width:1.0;"/></g><!--link race6 to summer1a--><g id="link_race6_summer1a"><path codeLine="50" d="M682.17,143.7969 C712.73,143.7969 742.76,143.7969 759.53,143.7969 " fill="none" id="race6-to-summer1a" style="stroke:#181818;stroke-width:1.0;"/><polygon fill="#181818" points="765.53,143.7969,756.53,139.7969,760.53,143.7969,756.53,147.7969,765.53,143.7969" style="stroke:#181818;stroke-width:1.0;"/><text fill="#000000" font-family="sans-serif" font-size="13" lengthAdjust="spacing" textLength="47" x="700.75" y="136.8638">2&#12479;&#12540;&#12531;</text></g><!--link race4 to summer1b--><!--link summer1b to race7--><g id="link_summer1b_race7"><path codeLine="60" d="M41.16,462.7969 C53.01,462.7969 58.86,462.7969 70.7,462.7969 " fill="none" id="summer1b-to-race7" style="stroke:#181818;stroke-width:1.0;"/><polygon fill="#181818" points="76.7,462.7969,67.7,458.7969,71.7,462.7969,67.7,466.7969,76.7,462.7969" style="stroke:#181818;stroke-width:1.0;"/></g><!--reverse link race7 to skill3--><g id="link_race7_skill3"><path codeLine="65" d="M134,533.2069 C134,555.0669 134,572.1669 134,588.6169 " fill="none" id="race7-backto-skill3" style="stroke:#181818;stroke-width:1.0;stroke-dasharray:7.0,7.0;"/><polygon fill="#181818" points="134,527.2069,130,536.2069,134,532.2069,138,536.2069,134,527.2069" style="stroke:#181818;stroke-width:1.0;"/></g><!--link race7 to race8--><g id="link_race7_race8"><path codeLine="74" d="M191.37,462.7969 C217.24,462.7969 242.05,462.7969 269.34,462.7969 " fill="none" id="race7-to-race8" style="stroke:#181818;stroke-width:1.0;"/><polygon fill="#181818" points="275.34,462.7969,266.34,458.7969,270.34,462.7969,266.34,466.7969,275.34,462.7969" style="stroke:#181818;stroke-width:1.0;"/><text fill="#000000" font-family="sans-serif" font-size="13" lengthAdjust="spacing" textLength="47" x="209.75" y="455.8638">0&#12479;&#12540;&#12531;</text></g><!--link race8 to race9--><g id="link_race8_race9"><path codeLine="83" d="M416.89,462.7969 C444.33,462.7969 469.32,462.7969 495.25,462.7969 " fill="none" id="race8-to-race9" style="stroke:#181818;stroke-width:1.0;"/><polygon fill="#181818" points="501.25,462.7969,492.25,458.7969,496.25,462.7969,492.25,466.7969,501.25,462.7969" style="stroke:#181818;stroke-width:1.0;"/><text fill="#000000" font-family="sans-serif" font-size="13" lengthAdjust="spacing" textLength="47" x="435.5" y="455.8638">2&#12479;&#12540;&#12531;</text></g><!--reverse link race9 to skill4--><g id="link_race9_skill4"><path codeLine="88" d="M558,533.2069 C558,555.0669 558,572.1669 558,588.6169 " fill="none" id="race9-backto-skill4" style="stroke:#181818;stroke-width:1.0;stroke-dasharray:7.0,7.0;"/><polygon fill="#181818" points="558,527.2069,554,536.2069,558,532.2069,562,536.2069,558,527.2069" style="stroke:#181818;stroke-width:1.0;"/></g><!--link race9 to race10--><g id="link_race9_race10"><path codeLine="91" d="M614.71,462.7969 C646.07,462.7969 675.97,462.7969 692.62,462.7969 " fill="none" id="race9-to-race10" style="stroke:#181818;stroke-width:1.0;"/><polygon fill="#181818" points="698.62,462.7969,689.62,458.7969,693.62,462.7969,689.62,466.7969,698.62,462.7969" style="stroke:#181818;stroke-width:1.0;"/><text fill="#000000" font-family="sans-serif" font-size="13" lengthAdjust="spacing" textLength="47" x="633.5" y="455.8638">5&#12479;&#12540;&#12531;</text></g><!--SRC=[lLHTJnf157tdLqnu4Yn4BA0sb1UbpqsJFZLzsEB64laAu5DZ0ZDgOAcbRLhHY9z5y9iqL8sjod_fTPRbNtHcTzbTKMjjchuGziwTUywvP-xDH39H4G790gu2QG0-1Rm7v0p8FX0298y0Du3i03xXtxXXioM5yAGm8QBHg91EHy8e47WcXZD2V28g1eFeZGsXc914TY0v85jggLsrL5bfhjgHa4Of8InwrKI4E23vf6OLqECW6kitmhW5P0s8nCCXFKm-S9BaZCUUQ35v_LJErYq1fRa9kSz6ODhMPIHlL1JfgvM5xnOMe_-U1D9bkr8HLr07VuGyAW23RNAMGZoUo0YPI2AExEtZ9RdGKbrPOiVC2PLrUYeS5jE9b8Ub6_zP8QzSoTF2F9sN87VOMIZIUf5zigG-5VQ1XkX0hgcaorB4C8jBFG2oHqiBzAAiGKr6eb6Ftg5ETer-hpr_scx-uA80DrNQ4lkb9tKbE_kpNBJezA60swrNw5LsULwHypN07vrEEfjNDjuwdP3RezM2lFnD1UR9Lcgx70hpjsaOvx-NSMFNVGlrs1RgSIrqHOnfcf_rUj0qJU-lJ-kltu6OwbxwjtHsK9T0brVfnOxULtbzfbELb2-Lzb5DFRqyds-V7xAxWALkxycS-Y1M06zgWsNXwZSRFyWvz3cGdLPBz7sU7hRq5nIBYIcFyBl3LqOrJNdtJgzu_KcxNhoEZ8-ByPSkiq1NVxjUL4eDwz0DtS-x6uOkrF-7xdNPM0mSkjkPXrs279Eecs-1LwMD2ragopCbvM3HVExw5VTKqdqTOPilFtpCPnYVqgrc-rrHNcaOhHZ-VwtGEc_sOPXvEN1b-sWxibBerFQLxKNQEkfB91q6rP5xKHtz6wRMHJbieJfozTdTwP_tficYStFqhCwM8v1LxWkNaGToOC4SCMV7QyvElREuQ_NCCs2acnGz0uoZp-Gu_Gi0]--></g></svg>