<?xml version="1.0" encoding="us-ascii" standalone="no"?><svg xmlns="http://www.w3.org/2000/svg" xmlns:xlink="http://www.w3.org/1999/xlink" contentStyleType="text/css" height="728px" preserveAspectRatio="none" style="width:645px;height:728px;background:#FFFFFF;" version="1.1" viewBox="0 0 645 728" width="645px" zoomAndPan="magnify"><defs/><g><!--cluster SemVer--><g id="cluster_SemVer"><rect fill="none" height="111.6" rx="7.5" ry="7.5" style="stroke:#181818;stroke-width:1.0;" width="460" x="51" y="7"/><path d="M123,7 L123,16.2969 L113,26.2969 L51,26.2969 " fill="none" style="stroke:#181818;stroke-width:1.0;"/><text fill="#000000" font-family="sans-serif" font-size="14" font-weight="bold" lengthAdjust="spacing" textLength="62" x="54" y="20.9951">SemVer</text></g><!--cluster Commit Type--><g id="cluster_Commit Type"><rect fill="none" height="571.67" rx="7.5" ry="7.5" style="stroke:#181818;stroke-width:1.0;" width="632" x="7" y="150.6"/><path d="M120,150.6 L120,159.8969 L110,169.8969 L7,169.8969 " fill="none" style="stroke:#181818;stroke-width:1.0;"/><text fill="#000000" font-family="sans-serif" font-size="14" font-weight="bold" lengthAdjust="spacing" textLength="103" x="10" y="164.5951">Commit Type</text></g><!--cluster commit--><g id="cluster_commit"><rect fill="none" height="111.59" rx="7.5" ry="7.5" style="stroke:#181818;stroke-width:1.0;" width="477" x="39" y="201.6"/><path d="M225,201.6 L225,210.8969 L215,220.8969 L39,220.8969 " fill="none" style="stroke:#181818;stroke-width:1.0;"/><text fill="#000000" font-family="sans-serif" font-size="14" font-weight="bold" lengthAdjust="spacing" textLength="176" x="42" y="215.5951">Conventional Commits</text></g><!--cluster angular--><g id="cluster_angular"><rect fill="none" height="337.08" rx="7.5" ry="7.5" style="stroke:#181818;stroke-width:1.0;" width="568" x="39" y="353.19"/><path d="M103,353.19 L103,362.4869 L93,372.4869 L39,372.4869 " fill="none" style="stroke:#181818;stroke-width:1.0;"/><text fill="#000000" font-family="sans-serif" font-size="14" font-weight="bold" lengthAdjust="spacing" textLength="54" x="42" y="367.1851">Others</text></g><g id="elem_MAJOR"><rect fill="#87CEEB" height="44.5938" rx="7.5" ry="7.5" style="stroke:#181818;stroke-width:0.5;" width="131" x="94.5" y="50"/><text fill="#000000" font-family="sans-serif" font-size="14" lengthAdjust="spacing" textLength="45" x="137.5" y="64.9951">MAJOR</text><line style="stroke:#181818;stroke-width:0.5;" x1="95.5" x2="224.5" y1="70.2969" y2="70.2969"/><text fill="#000000" font-family="sans-serif" font-size="14" lengthAdjust="spacing" textLength="119" x="100.5" y="87.292">API&#12398;&#30772;&#22730;&#30340;&#12394;&#22793;&#26356;</text></g><g id="elem_MINOR"><rect fill="#9ACD32" height="44.5938" rx="7.5" ry="7.5" style="stroke:#181818;stroke-width:0.5;" width="124" x="260" y="50"/><text fill="#000000" font-family="sans-serif" font-size="14" lengthAdjust="spacing" textLength="46" x="299" y="64.9951">MINOR</text><line style="stroke:#181818;stroke-width:0.5;" x1="261" x2="383" y1="70.2969" y2="70.2969"/><text fill="#000000" font-family="sans-serif" font-size="14" lengthAdjust="spacing" textLength="112" x="266" y="87.292">&#27231;&#33021;&#12398;&#36861;&#21152;&#12420;&#24259;&#27490;</text></g><g id="elem_PATCH"><rect fill="#FA8072" height="44.5938" rx="7.5" ry="7.5" style="stroke:#181818;stroke-width:0.5;" width="68" x="419" y="50"/><text fill="#000000" font-family="sans-serif" font-size="14" lengthAdjust="spacing" textLength="47" x="429.5" y="64.9951">PATCH</text><line style="stroke:#181818;stroke-width:0.5;" x1="420" x2="486" y1="70.2969" y2="70.2969"/><text fill="#000000" font-family="sans-serif" font-size="14" lengthAdjust="spacing" textLength="56" x="425" y="87.292">&#12496;&#12464;&#20462;&#27491;</text></g><g id="elem_feat"><rect fill="#F1F1F1" height="44.5938" rx="7.5" ry="7.5" style="stroke:#181818;stroke-width:0.5;" width="124" x="265" y="244.6"/><text fill="#000000" font-family="sans-serif" font-size="14" lengthAdjust="spacing" textLength="26" x="314" y="259.5951">feat</text><line style="stroke:#181818;stroke-width:0.5;" x1="266" x2="388" y1="264.8969" y2="264.8969"/><text fill="#000000" font-family="sans-serif" font-size="14" lengthAdjust="spacing" textLength="112" x="271" y="281.892">&#27231;&#33021;&#12398;&#36861;&#21152;&#12420;&#24259;&#27490;</text></g><g id="elem_fix"><rect fill="#F1F1F1" height="44.5938" rx="7.5" ry="7.5" style="stroke:#181818;stroke-width:0.5;" width="68" x="424" y="244.6"/><text fill="#000000" font-family="sans-serif" font-size="14" lengthAdjust="spacing" textLength="14" x="451" y="259.5951">fix</text><line style="stroke:#181818;stroke-width:0.5;" x1="425" x2="491" y1="264.8969" y2="264.8969"/><text fill="#000000" font-family="sans-serif" font-size="14" lengthAdjust="spacing" textLength="56" x="430" y="281.892">&#12496;&#12464;&#20462;&#27491;</text></g><g id="elem_break"><rect fill="#F1F1F1" height="44.5938" rx="7.5" ry="7.5" style="stroke:#181818;stroke-width:0.5;" width="148" x="82" y="244.6"/><text fill="#000000" font-family="sans-serif" font-size="14" lengthAdjust="spacing" textLength="134" x="89" y="259.5951">BREAKING CHANGE</text><line style="stroke:#181818;stroke-width:0.5;" x1="83" x2="229" y1="264.8969" y2="264.8969"/><text fill="#000000" font-family="sans-serif" font-size="14" lengthAdjust="spacing" textLength="119" x="88" y="281.892">API&#12398;&#30772;&#22730;&#30340;&#12394;&#22793;&#26356;</text></g><g id="elem_build"><rect fill="#F1F1F1" height="44.5938" rx="7.5" ry="7.5" style="stroke:#181818;stroke-width:0.5;" width="222" x="82" y="404.34"/><text fill="#000000" font-family="sans-serif" font-size="14" lengthAdjust="spacing" textLength="33" x="176.5" y="419.3351">build</text><line style="stroke:#181818;stroke-width:0.5;" x1="83" x2="303" y1="424.6369" y2="424.6369"/><text fill="#000000" font-family="sans-serif" font-size="14" lengthAdjust="spacing" textLength="210" x="88" y="441.632">&#12499;&#12523;&#12489;&#12471;&#12473;&#12486;&#12512;&#12420;&#22806;&#37096;&#20381;&#23384;&#12395;&#24433;&#38911;</text></g><g id="elem_chore"><rect fill="#F1F1F1" height="44.5938" rx="7.5" ry="7.5" style="stroke:#181818;stroke-width:0.5;" width="82" x="339" y="404.34"/><text fill="#000000" font-family="sans-serif" font-size="14" lengthAdjust="spacing" textLength="40" x="360" y="419.3351">chore</text><line style="stroke:#181818;stroke-width:0.5;" x1="340" x2="420" y1="424.6369" y2="424.6369"/><text fill="#000000" font-family="sans-serif" font-size="14" lengthAdjust="spacing" textLength="70" x="345" y="441.632">&#12381;&#12398;&#20182;&#22793;&#26356;</text></g><g id="elem_ci"><rect fill="#F1F1F1" height="60.8906" rx="7.5" ry="7.5" style="stroke:#181818;stroke-width:0.5;" width="110" x="456" y="396.19"/><text fill="#000000" font-family="sans-serif" font-size="14" lengthAdjust="spacing" textLength="11" x="505.5" y="411.1851">ci</text><line style="stroke:#181818;stroke-width:0.5;" x1="457" x2="565" y1="416.4869" y2="416.4869"/><text fill="#000000" font-family="sans-serif" font-size="14" lengthAdjust="spacing" textLength="69" x="462" y="433.482">CI&#12398;&#35373;&#23450;&#12420;</text><text fill="#000000" font-family="sans-serif" font-size="14" lengthAdjust="spacing" textLength="98" x="462" y="449.7789">&#12473;&#12463;&#12522;&#12503;&#12488;&#22793;&#26356;</text></g><g id="elem_docs"><rect fill="#F1F1F1" height="44.5938" rx="7.5" ry="7.5" style="stroke:#181818;stroke-width:0.5;" width="166" x="78" y="517.08"/><text fill="#000000" font-family="sans-serif" font-size="14" lengthAdjust="spacing" textLength="34" x="144" y="532.0751">docs</text><line style="stroke:#181818;stroke-width:0.5;" x1="79" x2="243" y1="537.3769" y2="537.3769"/><text fill="#000000" font-family="sans-serif" font-size="14" lengthAdjust="spacing" textLength="154" x="84" y="554.372">&#12489;&#12461;&#12517;&#12513;&#12531;&#12488;&#12398;&#12415;&#12398;&#22793;&#26356;</text></g><g id="elem_perf"><rect fill="#F1F1F1" height="44.5938" rx="7.5" ry="7.5" style="stroke:#181818;stroke-width:0.5;" width="138" x="279" y="517.08"/><text fill="#000000" font-family="sans-serif" font-size="14" lengthAdjust="spacing" textLength="27" x="334.5" y="532.0751">perf</text><line style="stroke:#181818;stroke-width:0.5;" x1="280" x2="416" y1="537.3769" y2="537.3769"/><text fill="#000000" font-family="sans-serif" font-size="14" lengthAdjust="spacing" textLength="126" x="285" y="554.372">&#12497;&#12501;&#12457;&#12540;&#12510;&#12531;&#12473;&#25913;&#21892;</text></g><g id="elem_refactor"><rect fill="#F1F1F1" height="44.5938" rx="7.5" ry="7.5" style="stroke:#181818;stroke-width:0.5;" width="124" x="452" y="517.08"/><text fill="#000000" font-family="sans-serif" font-size="14" lengthAdjust="spacing" textLength="53" x="487.5" y="532.0751">refactor</text><line style="stroke:#181818;stroke-width:0.5;" x1="453" x2="575" y1="537.3769" y2="537.3769"/><text fill="#000000" font-family="sans-serif" font-size="14" lengthAdjust="spacing" textLength="112" x="458" y="554.372">&#12522;&#12501;&#12449;&#12463;&#12479;&#12522;&#12531;&#12464;</text></g><g id="elem_revert"><rect fill="#F1F1F1" height="44.5938" rx="7.5" ry="7.5" style="stroke:#181818;stroke-width:0.5;" width="166" x="71" y="621.68"/><text fill="#000000" font-family="sans-serif" font-size="14" lengthAdjust="spacing" textLength="40" x="134" y="636.6751">revert</text><line style="stroke:#181818;stroke-width:0.5;" x1="72" x2="236" y1="641.9769" y2="641.9769"/><text fill="#000000" font-family="sans-serif" font-size="14" lengthAdjust="spacing" textLength="154" x="77" y="658.972">&#20197;&#21069;&#12398;&#12467;&#12511;&#12483;&#12488;&#12408;&#12398;&#24489;&#24112;</text></g><g id="elem_style"><rect fill="#F1F1F1" height="44.5938" rx="7.5" ry="7.5" style="stroke:#181818;stroke-width:0.5;" width="138" x="272" y="621.68"/><text fill="#000000" font-family="sans-serif" font-size="14" lengthAdjust="spacing" textLength="32" x="325" y="636.6751">style</text><line style="stroke:#181818;stroke-width:0.5;" x1="273" x2="409" y1="641.9769" y2="641.9769"/><text fill="#000000" font-family="sans-serif" font-size="14" lengthAdjust="spacing" textLength="126" x="278" y="658.972">&#12467;&#12540;&#12489;&#12501;&#12457;&#12540;&#12510;&#12483;&#12488;</text></g><g id="elem_test"><rect fill="#F1F1F1" height="44.5938" rx="7.5" ry="7.5" style="stroke:#181818;stroke-width:0.5;" width="138" x="445" y="621.68"/><text fill="#000000" font-family="sans-serif" font-size="14" lengthAdjust="spacing" textLength="27" x="500.5" y="636.6751">test</text><line style="stroke:#181818;stroke-width:0.5;" x1="446" x2="582" y1="641.9769" y2="641.9769"/><text fill="#000000" font-family="sans-serif" font-size="14" lengthAdjust="spacing" textLength="126" x="451" y="658.972">&#12486;&#12473;&#12488;&#12398;&#36861;&#21152;&#12420;&#20462;&#27491;</text></g><!--link MAJOR to MINOR--><g id="link_MAJOR_MINOR"><path codeLine="15" d="M225.81,72.3 C237.08,72.3 248.36,72.3 259.63,72.3 " fill="none" id="MAJOR-MINOR" style="stroke:#181818;stroke-width:1.0;"/></g><!--link MINOR to PATCH--><g id="link_MINOR_PATCH"><path codeLine="16" d="M384.43,72.3 C395.86,72.3 407.29,72.3 418.71,72.3 " fill="none" id="MINOR-PATCH" style="stroke:#181818;stroke-width:1.0;"/></g><!--reverse link MAJOR to break--><g id="link_MAJOR_break"><path codeLine="31" d="M159.4255,101.0187 C158.6555,138.1087 157.22,207.22 156.45,244.26 " fill="none" id="MAJOR-backto-break" style="stroke:#181818;stroke-width:1.0;"/><polygon fill="#181818" points="159.55,95.02,155.3641,103.935,159.4462,100.0189,163.3623,104.1011,159.55,95.02" style="stroke:#181818;stroke-width:1.0;"/></g><!--reverse link MINOR to feat--><g id="link_MINOR_feat"><path codeLine="32" d="M322.7169,101.0179 C323.6869,138.1079 325.48,207.22 326.44,244.26 " fill="none" id="MINOR-backto-feat" style="stroke:#181818;stroke-width:1.0;"/><polygon fill="#181818" points="322.56,95.02,318.7967,104.1215,322.6907,100.0183,326.7939,103.9123,322.56,95.02" style="stroke:#181818;stroke-width:1.0;"/></g><!--reverse link PATCH to fix--><g id="link_PATCH_fix"><path codeLine="33" d="M453.7169,101.0179 C454.6869,138.1079 456.48,207.22 457.44,244.26 " fill="none" id="PATCH-backto-fix" style="stroke:#181818;stroke-width:1.0;"/><polygon fill="#181818" points="453.56,95.02,449.7967,104.1215,453.6907,100.0183,457.7939,103.9123,453.56,95.02" style="stroke:#181818;stroke-width:1.0;"/></g><!--link SemVer to commit--><!--link commit to angular--><!--SRC=[VPH1Jnf168Rl-oiczBo77dfjGebHsnIDDRqqFIpi05kMNJAxQ4d3WHrYnAH9JLlQs5YqQY8Og4rDAa7antmiuh_epEmkBA1UIFQRUTxlVR-PmSfgHbuXIWuHis2eCPCOcA37JoGfnOeOlSAvrwpmGKB8JBp3IHkzZ3vVMKEFh6mneHUmM44ekheCvVRDmOLxj7EpLu5oqpsk3dzSiCLI25sESxI8TTtSJ1EC3HyVDkeZscCAetxFtJa0f-9swR3rQnfVZQx7bbXdHS-P0Gdq4pZdWtvxs3eIkqkIv3cKYPREsBBNLF9Q1pMX54ICnCnSJhFHUZ6F8q9sN3Ssi65hfg7eoDjaHP1YeQG7U0vySoci19K7ytY99fZsVapDP9dP6NcsjX1ziHnVHB6bQ7nnGJX94Ananm8Fd88dneQ3V4OkvEMdtc7onDozNnBpGiAPL_6d5SnbnSvWOl7kYf4kw0gP7aIYeEbgADDde6T0g-3y0wS3T0kecCTnxPQU3gxttTPtA9-vlJ-tzVvyw6J697WYLjvd-GRTsaoioNPjl3V6Hp4wRRdjFTOk460EdDz0cq2_0Ts-JqOrarOe0VFU0de2z13eNuOnOIZtsUzzV1wJL8ZV1VeLd0RGAw0_kOJJ6NxfkBNAF4bmIadQ9WdHJK4VSjzENtmoWVExq0rC9bTmq3rngn-vLOTvhWEbmlabjttTS2_lKB3ieXuQDkUkUFefzrnc7hMnPOSyRucZtWu_W9bhBMwY_-SYg-QcyIQZgIestih-wsBB_ZERMVOldLJw3m00]--></g></svg>