<?xml version="1.0" encoding="us-ascii" standalone="no"?><svg xmlns="http://www.w3.org/2000/svg" xmlns:xlink="http://www.w3.org/1999/xlink" contentStyleType="text/css" height="504px" preserveAspectRatio="none" style="width:988px;height:504px;background:#FFFFFF;" version="1.1" viewBox="0 0 988 504" width="988px" zoomAndPan="magnify"><defs/><g><rect fill="none" height="20.9531" style="stroke:none;stroke-width:1.0;" width="955" x="15" y="12.7451"/><ellipse cx="309" cy="48.6982" fill="#222222" rx="10" ry="10" style="stroke:#222222;stroke-width:1.0;"/><rect fill="#555555" height="6" rx="2.5" ry="2.5" style="stroke:#555555;stroke-width:1.0;" width="558" x="21" y="78.6982"/><path d="M234,115.5186 L234,131.6514 L214,135.6514 L234,139.6514 L234,155.7842 A0,0 0 0 0 234,155.7842 L381,155.7842 A0,0 0 0 0 381,155.7842 L381,125.5186 L371,115.5186 L234,115.5186 A0,0 0 0 0 234,115.5186 " fill="#FEFFDD" style="stroke:#181818;stroke-width:0.5;"/><path d="M371,115.5186 L371,125.5186 L381,125.5186 L371,115.5186 " fill="#FEFFDD" style="stroke:#181818;stroke-width:0.5;"/><text fill="#000000" font-family="sans-serif" font-size="13" lengthAdjust="spacing" textLength="20" x="240" y="132.5854">on:</text><text fill="#000000" font-family="sans-serif" font-size="13" lengthAdjust="spacing" textLength="118" x="248" y="147.7183">workflow_dispatch:</text><rect fill="#F1F1F1" height="61.9063" rx="12.5" ry="12.5" style="stroke:#181818;stroke-width:0.5;" width="181" x="33" y="104.6982"/><text fill="#000000" font-family="sans-serif" font-size="12" lengthAdjust="spacing" textLength="84" x="43" y="125.8369">&#12527;&#12540;&#12463;&#12501;&#12525;&#12540;&#12391;</text><text fill="#000000" font-family="sans-serif" font-size="12" lengthAdjust="spacing" textLength="161" x="43" y="139.8057">workflow_dispatch&#12452;&#12505;&#12531;&#12488;</text><text fill="#000000" font-family="sans-serif" font-size="12" lengthAdjust="spacing" textLength="132" x="43" y="153.7744">&#12434;&#12488;&#12522;&#12460;&#12540;&#12377;&#12427;&#12424;&#12358;&#36861;&#35352;</text><rect fill="#F1F1F1" height="33.9688" rx="12.5" ry="12.5" style="stroke:#181818;stroke-width:0.5;" width="123" x="62" y="200.5732"/><text fill="#000000" font-family="sans-serif" font-size="12" lengthAdjust="spacing" textLength="103" x="72" y="221.7119">&#12522;&#12509;&#12472;&#12488;&#12522;&#12395;push</text><rect fill="#F1F1F1" height="33.9688" rx="12.5" ry="12.5" style="stroke:#181818;stroke-width:0.5;" width="176" x="391" y="118.667"/><text fill="#000000" font-family="sans-serif" font-size="12" lengthAdjust="spacing" textLength="156" x="401" y="139.8057">&#20491;&#20154;&#12450;&#12463;&#12475;&#12473;&#12488;&#12540;&#12463;&#12531;&#12434;&#20316;&#25104;</text><rect fill="#F1F1F1" height="33.9688" rx="12.5" ry="12.5" style="stroke:#181818;stroke-width:0.5;" width="97" x="430.5" y="186.6045"/><text fill="#000000" font-family="sans-serif" font-size="12" lengthAdjust="spacing" textLength="77" x="440.5" y="207.7432">Secret&#12395;&#30331;&#37682;</text><rect fill="#555555" height="6" rx="2.5" ry="2.5" style="stroke:#555555;stroke-width:1.0;" width="558" x="21" y="254.542"/><line style="stroke:#000000;stroke-width:1.5;" x1="15" x2="15" y1="12.7451" y2="492.3857"/><rect fill="#F1F1F1" height="33.9688" rx="12.5" ry="12.5" style="stroke:#181818;stroke-width:0.5;" width="176" x="597.5" y="280.542"/><text fill="#000000" font-family="sans-serif" font-size="12" lengthAdjust="spacing" textLength="156" x="607.5" y="301.6807">&#12527;&#12540;&#12463;&#12501;&#12525;&#12540;&#12539;&#12501;&#12449;&#12452;&#12523;&#20316;&#25104;</text><path d="M802,345.3311 L802,361.4639 L782,365.4639 L802,369.4639 L802,385.5967 A0,0 0 0 0 802,385.5967 L963,385.5967 A0,0 0 0 0 963,385.5967 L963,355.3311 L953,345.3311 L802,345.3311 A0,0 0 0 0 802,345.3311 " fill="#FEFFDD" style="stroke:#181818;stroke-width:0.5;"/><path d="M953,345.3311 L953,355.3311 L963,355.3311 L953,345.3311 " fill="#FEFFDD" style="stroke:#181818;stroke-width:0.5;"/><text fill="#000000" font-family="sans-serif" font-size="13" lengthAdjust="spacing" textLength="39" x="808" y="362.3979">steps:</text><text fill="#000000" font-family="sans-serif" font-size="13" lengthAdjust="spacing" textLength="132" x="816" y="377.5308">- run: curl -X POST ...</text><rect fill="#F1F1F1" height="61.9063" rx="12.5" ry="12.5" style="stroke:#181818;stroke-width:0.5;" width="193" x="589" y="334.5107"/><text fill="#000000" font-family="sans-serif" font-size="12" lengthAdjust="spacing" textLength="74" x="599" y="355.6494">main.yaml&#12395;</text><text fill="#000000" font-family="sans-serif" font-size="12" lengthAdjust="spacing" textLength="173" x="599" y="369.6182">workflow_dispatch&#12452;&#12505;&#12531;&#12488;&#12434;</text><text fill="#000000" font-family="sans-serif" font-size="12" lengthAdjust="spacing" textLength="112" x="599" y="383.5869">&#36865;&#20449;&#12377;&#12427;step&#12434;&#20316;&#25104;</text><rect fill="#F1F1F1" height="33.9688" rx="12.5" ry="12.5" style="stroke:#181818;stroke-width:0.5;" width="123" x="624" y="416.417"/><text fill="#000000" font-family="sans-serif" font-size="12" lengthAdjust="spacing" textLength="103" x="634" y="437.5557">&#12522;&#12509;&#12472;&#12488;&#12522;&#12395;push</text><ellipse cx="685.5" cy="481.3857" fill="none" rx="11" ry="11" style="stroke:#222222;stroke-width:1.0;"/><ellipse cx="685.5" cy="481.3857" fill="#222222" rx="6" ry="6" style="stroke:#222222;stroke-width:1.0;"/><line style="stroke:#000000;stroke-width:1.5;" x1="583" x2="583" y1="12.7451" y2="492.3857"/><line style="stroke:#000000;stroke-width:1.5;" x1="968" x2="968" y1="12.7451" y2="492.3857"/><line style="stroke:#181818;stroke-width:1.0;" x1="123.5" x2="123.5" y1="166.6045" y2="200.5732"/><polygon fill="#181818" points="119.5,190.5732,123.5,200.5732,127.5,190.5732,123.5,194.5732" style="stroke:#181818;stroke-width:1.0;"/><line style="stroke:#181818;stroke-width:1.0;" x1="479" x2="479" y1="152.6357" y2="186.6045"/><polygon fill="#181818" points="475,176.6045,479,186.6045,483,176.6045,479,180.6045" style="stroke:#181818;stroke-width:1.0;"/><line style="stroke:#181818;stroke-width:1.0;" x1="123.5" x2="123.5" y1="84.6982" y2="104.6982"/><polygon fill="#181818" points="119.5,94.6982,123.5,104.6982,127.5,94.6982,123.5,98.6982" style="stroke:#181818;stroke-width:1.0;"/><line style="stroke:#181818;stroke-width:1.0;" x1="479" x2="479" y1="84.6982" y2="118.667"/><polygon fill="#181818" points="475,108.667,479,118.667,483,108.667,479,112.667" style="stroke:#181818;stroke-width:1.0;"/><line style="stroke:#181818;stroke-width:1.0;" x1="123.5" x2="123.5" y1="234.542" y2="254.542"/><polygon fill="#181818" points="119.5,244.542,123.5,254.542,127.5,244.542,123.5,248.542" style="stroke:#181818;stroke-width:1.0;"/><line style="stroke:#181818;stroke-width:1.0;" x1="479" x2="479" y1="220.5732" y2="254.542"/><polygon fill="#181818" points="475,244.542,479,254.542,483,244.542,479,248.542" style="stroke:#181818;stroke-width:1.0;"/><line style="stroke:#181818;stroke-width:1.0;" x1="309" x2="309" y1="58.6982" y2="78.6982"/><polygon fill="#181818" points="305,68.6982,309,78.6982,313,68.6982,309,72.6982" style="stroke:#181818;stroke-width:1.0;"/><line style="stroke:#181818;stroke-width:1.0;" x1="685.5" x2="685.5" y1="314.5107" y2="334.5107"/><polygon fill="#181818" points="681.5,324.5107,685.5,334.5107,689.5,324.5107,685.5,328.5107" style="stroke:#181818;stroke-width:1.0;"/><line style="stroke:#181818;stroke-width:1.0;" x1="685.5" x2="685.5" y1="396.417" y2="416.417"/><polygon fill="#181818" points="681.5,406.417,685.5,416.417,689.5,406.417,685.5,410.417" style="stroke:#181818;stroke-width:1.0;"/><line style="stroke:#181818;stroke-width:1.0;" x1="685.5" x2="685.5" y1="450.3857" y2="470.3857"/><polygon fill="#181818" points="681.5,460.3857,685.5,470.3857,689.5,460.3857,685.5,464.3857" style="stroke:#181818;stroke-width:1.0;"/><line style="stroke:#181818;stroke-width:1.0;" x1="309" x2="309" y1="260.542" y2="265.542"/><line style="stroke:#181818;stroke-width:1.0;" x1="309" x2="685.5" y1="265.542" y2="265.542"/><line style="stroke:#181818;stroke-width:1.0;" x1="685.5" x2="685.5" y1="265.542" y2="280.542"/><polygon fill="#181818" points="681.5,270.542,685.5,280.542,689.5,270.542,685.5,274.542" style="stroke:#181818;stroke-width:1.0;"/><text fill="#000000" font-family="sans-serif" font-size="18" lengthAdjust="spacing" textLength="115" x="241.5" y="29.4531">main&#12502;&#12521;&#12531;&#12481;</text><text fill="#000000" font-family="sans-serif" font-size="18" lengthAdjust="spacing" textLength="134" x="708.5" y="29.4531">orphan&#12502;&#12521;&#12531;&#12481;</text><!--SRC=[VP31IiD048Rl-nJx0iq390-XK0_U9AHf4qoJiDbGX1oQNP10FOYW6D13HL1RHR0NRInzc8dQleMpMvKYrSiok_FlF_zyMTVsGv1d8Ez0Ja3c6KcupJWXxOZj4qfDa8yWNq7WUGhoGTNv3JPws6y7KM-lvIUnpHqFn3N8KhiKs0TnWWN84OXx_Qa4CG1HG7wucCyMj-SMYiA8kvJv7O_Z9GfDF3SugsStR6drAj88v2M8vwy1-JXE4y_IaQdTmOsKwgq_gATJ45SgkwX0l6ZvQfK9ngjd5-_5iOfXDbs7kHoDFifgUVHa4JLE4o1Pn6BF_iLe4nLPgLeCDOVnjxcf01i7TZT0T_8lD8n4blsydWzNi1BkncinrrYfJgAeD2XBGvCwAGjeOvTkRpLtg64Ov8VMdwpG8ue_0G00]--></g></svg>