<?xml version="1.0" encoding="us-ascii" standalone="no"?><svg xmlns="http://www.w3.org/2000/svg" xmlns:xlink="http://www.w3.org/1999/xlink" contentStyleType="text/css" height="339px" preserveAspectRatio="none" style="width:999px;height:339px;background:#FFFFFF;" version="1.1" viewBox="0 0 999 339" width="999px" zoomAndPan="magnify"><defs/><g><text fill="#000000" font-family="sans-serif" font-size="14" font-weight="bold" lengthAdjust="spacing" textLength="187" x="399" y="22.9951">&#12480;&#12452;&#12527;&#12473;&#12459;&#12540;&#12524;&#12483;&#12488; &#12472;&#12517;&#12491;&#12450;</text><!--cluster Junior--><g id="cluster_Junior"><rect fill="none" height="289" rx="2.5" ry="2.5" style="stroke:#181818;stroke-width:1.0;" width="857" x="9" y="44.2969"/><text fill="#000000" font-family="sans-serif" font-size="14" font-weight="bold" lengthAdjust="spacing" textLength="45" x="415" y="59.292">Junior</text></g><!--entity start--><g id="elem_start"><ellipse cx="34" cy="143.7969" fill="#F1F1F1" rx="8" ry="8" style="stroke:#181818;stroke-width:0.5;"/><text fill="#000000" font-family="sans-serif" font-size="14" lengthAdjust="spacing" textLength="56" x="6" y="173.792">&#12473;&#12479;&#12540;&#12488;</text></g><g id="elem_race1"><rect fill="#F1F1F1" height="121.7813" style="stroke:#181818;stroke-width:0.5;" width="118" x="143" y="83.2969"/><text fill="#000000" font-family="sans-serif" font-size="14" lengthAdjust="spacing" textLength="98" x="153" y="98.292">&#12513;&#12452;&#12463;&#12487;&#12499;&#12517;&#12540;</text><line style="stroke:#181818;stroke-width:1.0;" x1="143" x2="261" y1="103.5938" y2="103.5938"/><text fill="#000000" font-family="sans-serif" font-size="14" lengthAdjust="spacing" textLength="56" x="148" y="118.5889">&#12473;&#12500;&#12540;&#12489;</text><text fill="#000000" font-family="sans-serif" font-size="14" lengthAdjust="spacing" textLength="9" x="214" y="118.5889">E</text><line style="stroke:#181818;stroke-width:1.0;" x1="209" x2="209" y1="103.5938" y2="123.8906"/><line style="stroke:#181818;stroke-width:1.0;" x1="143" x2="261" y1="123.8906" y2="123.8906"/><text fill="#000000" font-family="sans-serif" font-size="14" lengthAdjust="spacing" textLength="56" x="148" y="138.8857">&#12473;&#12479;&#12511;&#12490;</text><text fill="#000000" font-family="sans-serif" font-size="14" lengthAdjust="spacing" textLength="9" x="214" y="138.8857">E</text><line style="stroke:#181818;stroke-width:1.0;" x1="209" x2="209" y1="123.8906" y2="144.1875"/><line style="stroke:#181818;stroke-width:1.0;" x1="143" x2="261" y1="144.1875" y2="144.1875"/><text fill="#000000" font-family="sans-serif" font-size="14" lengthAdjust="spacing" textLength="42" x="155" y="159.1826">&#12497;&#12527;&#12540;</text><text fill="#000000" font-family="sans-serif" font-size="14" lengthAdjust="spacing" textLength="8" x="214" y="159.1826">F</text><line style="stroke:#181818;stroke-width:1.0;" x1="209" x2="209" y1="144.1875" y2="164.4844"/><line style="stroke:#181818;stroke-width:1.0;" x1="143" x2="261" y1="164.4844" y2="164.4844"/><text fill="#000000" font-family="sans-serif" font-size="14" lengthAdjust="spacing" textLength="28" x="162" y="179.4795">&#26681;&#24615;</text><text fill="#000000" font-family="sans-serif" font-size="14" lengthAdjust="spacing" textLength="42" x="214" y="179.4795">F&#65374;F+</text><line style="stroke:#181818;stroke-width:1.0;" x1="209" x2="209" y1="164.4844" y2="184.7813"/><line style="stroke:#181818;stroke-width:1.0;" x1="143" x2="261" y1="184.7813" y2="184.7813"/><text fill="#000000" font-family="sans-serif" font-size="14" lengthAdjust="spacing" textLength="28" x="162" y="199.7764">&#36066;&#12373;</text><text fill="#000000" font-family="sans-serif" font-size="14" lengthAdjust="spacing" textLength="8" x="214" y="199.7764">F</text><line style="stroke:#181818;stroke-width:1.0;" x1="209" x2="209" y1="184.7813" y2="205.0781"/></g><!--class anno0--><g id="elem_anno0"><rect codeLine="15" fill="#F1F1F1" height="48" id="anno0" rx="2.5" ry="2.5" style="stroke:#181818;stroke-width:0.5;" width="102" x="151" y="269.2969"/><ellipse cx="166" cy="285.2969" fill="#E3664A" rx="11" ry="11" style="stroke:#181818;stroke-width:1.0;"/><path d="M168.0781,285.7656 Q168.0781,284.8281 167.6563,284.2969 Q167.2344,283.7656 166.4844,283.7656 Q165.75,283.7656 165.3281,284.2969 Q164.9219,284.8281 164.9219,285.7656 Q164.9219,286.7188 165.3281,287.25 Q165.75,287.7813 166.4844,287.7813 Q167.2344,287.7813 167.6563,287.25 Q168.0781,286.7188 168.0781,285.7656 Z M169.625,289.1719 L168,289.1719 L168,288.5 Q167.6719,288.9375 167.25,289.1406 Q166.8281,289.3438 166.2188,289.3438 Q164.8594,289.3438 164.0313,288.375 Q163.2031,287.3906 163.2031,285.7656 Q163.2031,284.1719 164.0313,283.2031 Q164.8594,282.2188 166.2188,282.2188 Q166.8125,282.2188 167.2656,282.4219 Q167.7188,282.625 168,283.0156 L168,282.6719 Q168,281.5469 167.375,280.9375 Q166.75,280.3125 165.6094,280.3125 Q163.8906,280.3125 162.7969,281.8438 Q161.7031,283.3594 161.7031,285.7969 Q161.7031,288.3438 162.9531,289.8438 Q164.2188,291.3438 166.3281,291.3438 Q166.9844,291.3438 167.6094,291.1563 Q168.2344,290.9688 168.8125,290.5781 L169.5781,292.0313 Q168.9063,292.4844 168.1094,292.7031 Q167.3125,292.9375 166.4063,292.9375 Q163.5,292.9375 161.7656,291 Q160.0469,289.0781 160.0469,285.7969 Q160.0469,282.5781 161.5938,280.6563 Q163.1563,278.7188 165.7188,278.7188 Q167.5156,278.7188 168.5625,279.8125 Q169.625,280.9063 169.625,282.7813 L169.625,289.1719 Z " fill="#000000"/><text fill="#000000" font-family="sans-serif" font-size="14" lengthAdjust="spacing" textLength="42" x="180" y="290.1436">&#20316;&#25126;&#12399;</text><text fill="#000000" font-family="sans-serif" font-size="14" font-weight="bold" lengthAdjust="spacing" textLength="28" x="222" y="290.1436">&#36867;&#12370;</text><line style="stroke:#181818;stroke-width:0.5;" x1="152" x2="252" y1="301.2969" y2="301.2969"/><line style="stroke:#181818;stroke-width:0.5;" x1="152" x2="252" y1="309.2969" y2="309.2969"/></g><g id="elem_race2"><rect fill="#F1F1F1" height="121.7813" style="stroke:#181818;stroke-width:0.5;" width="196" x="408" y="83.2969"/><text fill="#000000" font-family="sans-serif" font-size="14" lengthAdjust="spacing" textLength="182" x="415" y="98.292">&#38442;&#31070;&#12472;&#12517;&#12505;&#12490;&#12452;&#12523;&#12501;&#12451;&#12522;&#12540;&#12474;</text><line style="stroke:#181818;stroke-width:1.0;" x1="408" x2="604" y1="103.5938" y2="103.5938"/><text fill="#000000" font-family="sans-serif" font-size="14" lengthAdjust="spacing" textLength="56" x="413" y="118.5889">&#12473;&#12500;&#12540;&#12489;</text><text fill="#000000" font-family="sans-serif" font-size="14" lengthAdjust="spacing" textLength="11" x="479" y="118.5889">D</text><line style="stroke:#181818;stroke-width:1.0;" x1="474" x2="474" y1="103.5938" y2="123.8906"/><line style="stroke:#181818;stroke-width:1.0;" x1="408" x2="604" y1="123.8906" y2="123.8906"/><text fill="#000000" font-family="sans-serif" font-size="14" lengthAdjust="spacing" textLength="56" x="413" y="138.8857">&#12473;&#12479;&#12511;&#12490;</text><text fill="#000000" font-family="sans-serif" font-size="14" lengthAdjust="spacing" textLength="21" x="479" y="138.8857">E+</text><line style="stroke:#181818;stroke-width:1.0;" x1="474" x2="474" y1="123.8906" y2="144.1875"/><line style="stroke:#181818;stroke-width:1.0;" x1="408" x2="604" y1="144.1875" y2="144.1875"/><text fill="#000000" font-family="sans-serif" font-size="14" lengthAdjust="spacing" textLength="42" x="420" y="159.1826">&#12497;&#12527;&#12540;</text><text fill="#000000" font-family="sans-serif" font-size="14" lengthAdjust="spacing" textLength="20" x="479" y="159.1826">F+</text><line style="stroke:#181818;stroke-width:1.0;" x1="474" x2="474" y1="144.1875" y2="164.4844"/><line style="stroke:#181818;stroke-width:1.0;" x1="408" x2="604" y1="164.4844" y2="164.4844"/><text fill="#000000" font-family="sans-serif" font-size="14" lengthAdjust="spacing" textLength="28" x="427" y="179.4795">&#26681;&#24615;</text><text fill="#000000" font-family="sans-serif" font-size="14" lengthAdjust="spacing" textLength="42" x="479" y="179.4795">F&#65374;F+</text><line style="stroke:#181818;stroke-width:1.0;" x1="474" x2="474" y1="164.4844" y2="184.7813"/><line style="stroke:#181818;stroke-width:1.0;" x1="408" x2="604" y1="184.7813" y2="184.7813"/><text fill="#000000" font-family="sans-serif" font-size="14" lengthAdjust="spacing" textLength="28" x="427" y="199.7764">&#36066;&#12373;</text><text fill="#000000" font-family="sans-serif" font-size="14" lengthAdjust="spacing" textLength="20" x="479" y="199.7764">F+</text><line style="stroke:#181818;stroke-width:1.0;" x1="474" x2="474" y1="184.7813" y2="205.0781"/></g><ellipse cx="363" cy="143.7969" fill="#181818" rx="2" ry="2" style="stroke:#181818;stroke-width:1.0;"/><g id="elem_race3"><rect fill="#F1F1F1" height="44.5938" style="stroke:#181818;stroke-width:0.5;" width="154" x="696" y="121.4969"/><text fill="#000000" font-family="sans-serif" font-size="14" lengthAdjust="spacing" textLength="140" x="703" y="136.492">&#12507;&#12540;&#12503;&#12501;&#12523;&#12473;&#12486;&#12540;&#12463;&#12473;</text><line style="stroke:#181818;stroke-width:0.5;" x1="697" x2="849" y1="141.7938" y2="141.7938"/><text fill="#000000" font-family="sans-serif" font-size="14" lengthAdjust="spacing" textLength="98" x="702" y="158.7889">&#21516;&#19968;&#12473;&#12486;&#12540;&#12479;&#12473;</text></g><!--entity race4--><g id="elem_race4"><ellipse cx="943" cy="143.7969" fill="#F1F1F1" rx="8" ry="8" style="stroke:#181818;stroke-width:0.5;"/><text fill="#000000" font-family="sans-serif" font-size="14" lengthAdjust="spacing" textLength="98" x="894" y="173.792">&#12481;&#12517;&#12540;&#12522;&#12483;&#12503;&#36062;</text></g><!--link start to race1--><g id="link_start_race1"><path codeLine="13" d="M43.03,143.7969 C60.41,143.7969 93.91,143.7969 129.19,143.7969 " fill="none" id="start-to-race1" style="stroke:#181818;stroke-width:1.0;"/><polygon fill="#181818" points="135.19,143.7969,126.19,139.7969,130.19,143.7969,126.19,147.7969,135.19,143.7969" style="stroke:#181818;stroke-width:1.0;"/><text fill="#000000" font-family="sans-serif" font-size="13" lengthAdjust="spacing" textLength="55" x="61.5" y="136.8638">11&#12479;&#12540;&#12531;</text></g><!--reverse link race1 to anno0--><g id="link_race1_anno0"><path codeLine="16" d="M202,214.2069 C202,235.7569 202,252.5069 202,268.9069 " fill="none" id="race1-backto-anno0" style="stroke:#181818;stroke-width:1.0;stroke-dasharray:7.0,7.0;"/><polygon fill="#181818" points="202,208.2069,198,217.2069,202,213.2069,206,217.2069,202,208.2069" style="stroke:#181818;stroke-width:1.0;"/></g><!--link race1 to apoint11--><g id="link_race1_apoint11"><path d="M268.88,143.7969 C307.59,143.7969 350.62,143.7969 360.77,143.7969 " fill="none" id="race1-apoint11" style="stroke:#181818;stroke-width:1.0;"/><text fill="#000000" font-family="sans-serif" font-size="13" lengthAdjust="spacing" textLength="55" x="287.5" y="136.8638">10&#12479;&#12540;&#12531;</text></g><!--link apoint11 to race2--><g id="link_apoint11_race2"><path d="M365.23,143.7969 C376.87,143.7969 382.51,143.7969 394.15,143.7969 " fill="none" id="apoint11-to-race2" style="stroke:#181818;stroke-width:1.0;"/><polygon fill="#181818" points="400.15,143.7969,391.15,139.7969,395.15,143.7969,391.15,147.7969,400.15,143.7969" style="stroke:#181818;stroke-width:1.0;"/></g><!--link race2 to race3--><g id="link_race2_race3"><path codeLine="35" d="M611.91,143.7969 C639.86,143.7969 663.51,143.7969 689.64,143.7969 " fill="none" id="race2-to-race3" style="stroke:#181818;stroke-width:1.0;"/><polygon fill="#181818" points="695.64,143.7969,686.64,139.7969,690.64,143.7969,686.64,147.7969,695.64,143.7969" style="stroke:#181818;stroke-width:1.0;"/><text fill="#000000" font-family="sans-serif" font-size="13" lengthAdjust="spacing" textLength="47" x="630.5" y="136.8638">0&#12479;&#12540;&#12531;</text></g><!--link race3 to race4--><g id="link_race3_race4"><path codeLine="38" d="M850.04,143.7969 C882.9,143.7969 911.35,143.7969 927.54,143.7969 " fill="none" id="race3-to-race4" style="stroke:#181818;stroke-width:1.0;"/><polygon fill="#181818" points="933.54,143.7969,924.54,139.7969,928.54,143.7969,924.54,147.7969,933.54,143.7969" style="stroke:#181818;stroke-width:1.0;"/><text fill="#000000" font-family="sans-serif" font-size="13" lengthAdjust="spacing" textLength="47" x="868.5" y="136.8638">4&#12479;&#12540;&#12531;</text></g><!--SRC=[ZPFBRjDG48RtVefHLZHf8kVI3GfPGP5OyWOcighGubIfMQ5AFcSg20qBQ8dQ0Wrj8LnIf21bauH4VPXnGhlY5JXdV8ah5Oc59NlEp3__V6VirjmD6mWzafy9-oH79Cy99uG_296m2II7X5t25iapmzYqgklMcWqFdZgrUWFAvOTsrRMSjGsxKe5d1i2j9KYnoWMhD5DWRS6MQpLSGvq-iJRLCPxgRh9F-89mdzKddDUmgdQUPG2q2BvbaPTmfmBtugYM_aYucuZY6sqU9pgqog7voMZkVUNlFzFEQeQ3buCp4kqeQLizx0ooZLgs4dQ_3Vbyv7wWFLkEKtSjjrPt8ELFFyoRNqZqq-ah3qdifTDiNEUOAZUGAEToOIGQ-UgmzxlRYL0UAVFCMv5ka_n4sDFjv3Y6KFW7XBitGyZSG27pNnWo8OV0-893GNCmht6eFtgixbhD8hxFfliaUhmZolPeSNUvbKWhjw8KUBnJLJzl_oIvbrysJTCVZ_rVNN-uI-ASn179rhMI-qN2JWX7d93uDciTar0BiwEJnGvvGk4dyKxl6fSj1uQNe9pDnYuIVWdVyn07serIrKYVi_5-qdinH3vx_SeVUeci2_MUe5H8K2egmmb8smPlFufWfVbQrJzqS3den6rAHb2u42afaL8iyXS0]--></g></svg>