<?xml version="1.0" encoding="us-ascii" standalone="no"?><svg xmlns="http://www.w3.org/2000/svg" xmlns:xlink="http://www.w3.org/1999/xlink" contentStyleType="text/css" height="271px" preserveAspectRatio="none" style="width:210px;height:271px;background:#FFFFFF;" version="1.1" viewBox="0 0 210 271" width="210px" zoomAndPan="magnify"><defs/><g><rect fill="#F1F1F1" height="33.9688" rx="12.5" ry="12.5" style="stroke:#181818;stroke-width:0.5;" width="140" x="35" y="11"/><text fill="#000000" font-family="sans-serif" font-size="12" lengthAdjust="spacing" textLength="120" x="45" y="32.1387">&#12487;&#12496;&#12452;&#12473;&#12510;&#12493;&#12540;&#12472;&#12515;&#12540;</text><rect fill="#F1F1F1" height="33.9688" rx="12.5" ry="12.5" style="stroke:#181818;stroke-width:0.5;" width="173" x="18.5" y="64.9688"/><text fill="#000000" font-family="sans-serif" font-size="12" lengthAdjust="spacing" textLength="153" x="28.5" y="86.1074">&#23550;&#35937;&#12398; Bluetooth &#12450;&#12480;&#12503;&#12479;</text><rect fill="#F1F1F1" height="33.9688" rx="12.5" ry="12.5" style="stroke:#181818;stroke-width:0.5;" width="80" x="65" y="118.9375"/><text fill="#000000" font-family="sans-serif" font-size="12" lengthAdjust="spacing" textLength="60" x="75" y="140.0762">&#12503;&#12525;&#12497;&#12486;&#12451;</text><rect fill="#F1F1F1" height="33.9688" rx="12.5" ry="12.5" style="stroke:#181818;stroke-width:0.5;" width="92" x="59" y="172.9063"/><text fill="#000000" font-family="sans-serif" font-size="12" lengthAdjust="spacing" textLength="72" x="69" y="194.0449">&#35443;&#32048;&#35373;&#23450;&#12479;&#12502;</text><rect fill="#F1F1F1" height="33.9688" rx="12.5" ry="12.5" style="stroke:#181818;stroke-width:0.5;" width="188" x="11" y="226.875"/><text fill="#000000" font-family="sans-serif" font-size="12" lengthAdjust="spacing" textLength="168" x="21" y="248.0137">&#12501;&#12449;&#12540;&#12512;&#12454;&#12455;&#12450;&#12496;&#12540;&#12472;&#12519;&#12531;&#38917;&#30446;</text><line style="stroke:#181818;stroke-width:1.0;" x1="105" x2="105" y1="44.9688" y2="64.9688"/><polygon fill="#181818" points="101,54.9688,105,64.9688,109,54.9688,105,58.9688" style="stroke:#181818;stroke-width:1.0;"/><line style="stroke:#181818;stroke-width:1.0;" x1="105" x2="105" y1="98.9375" y2="118.9375"/><polygon fill="#181818" points="101,108.9375,105,118.9375,109,108.9375,105,112.9375" style="stroke:#181818;stroke-width:1.0;"/><line style="stroke:#181818;stroke-width:1.0;" x1="105" x2="105" y1="152.9063" y2="172.9063"/><polygon fill="#181818" points="101,162.9063,105,172.9063,109,162.9063,105,166.9063" style="stroke:#181818;stroke-width:1.0;"/><line style="stroke:#181818;stroke-width:1.0;" x1="105" x2="105" y1="206.875" y2="226.875"/><polygon fill="#181818" points="101,216.875,105,226.875,109,216.875,105,220.875" style="stroke:#181818;stroke-width:1.0;"/><!--SRC=[DOqn2i9000HxNv5t99r_4Io4DB7NNTHAY8KA2f8OCLhaL6AX8FgO9UJyXPU0tR0Cixuu4sFX83p5dJWNNy93p1m47R-wlEqjrTXutS6m5uLXrFU4lJWIryB7AGsm41VYLCZSOizbVR_QKr6PZNF4LQijXRJ9Cn6EGjvsulzXBfRVP59lJV03]--></g></svg>