<?xml version="1.0" encoding="us-ascii" standalone="no"?><svg xmlns="http://www.w3.org/2000/svg" xmlns:xlink="http://www.w3.org/1999/xlink" contentStyleType="text/css" height="359px" preserveAspectRatio="none" style="width:754px;height:359px;background:#FFFFFF;" version="1.1" viewBox="0 0 754 359" width="754px" zoomAndPan="magnify"><defs/><g><text fill="#000000" font-family="sans-serif" font-size="14" font-weight="bold" lengthAdjust="spacing" textLength="173" x="283.5" y="22.9951">&#12480;&#12452;&#12527;&#12473;&#12459;&#12540;&#12524;&#12483;&#12488; &#12471;&#12491;&#12450;</text><!--cluster Senior--><g id="cluster_Senior"><rect fill="none" height="309" rx="2.5" ry="2.5" style="stroke:#181818;stroke-width:1.0;" width="741" x="7" y="44.2969"/><text fill="#000000" font-family="sans-serif" font-size="14" font-weight="bold" lengthAdjust="spacing" textLength="51" x="352" y="59.292">Senior</text></g><g id="elem_race10"><rect fill="#F1F1F1" height="121.7813" style="stroke:#181818;stroke-width:0.5;" width="98" x="31" y="83.2969"/><text fill="#000000" font-family="sans-serif" font-size="14" lengthAdjust="spacing" textLength="42" x="59" y="98.292">&#22823;&#38442;&#26479;</text><line style="stroke:#181818;stroke-width:1.0;" x1="31" x2="129" y1="103.5938" y2="103.5938"/><text fill="#000000" font-family="sans-serif" font-size="14" lengthAdjust="spacing" textLength="56" x="36" y="118.5889">&#12473;&#12500;&#12540;&#12489;</text><text fill="#000000" font-family="sans-serif" font-size="14" lengthAdjust="spacing" textLength="22" x="102" y="118.5889">C+</text><line style="stroke:#181818;stroke-width:1.0;" x1="97" x2="97" y1="103.5938" y2="123.8906"/><line style="stroke:#181818;stroke-width:1.0;" x1="31" x2="129" y1="123.8906" y2="123.8906"/><text fill="#000000" font-family="sans-serif" font-size="14" lengthAdjust="spacing" textLength="56" x="36" y="138.8857">&#12473;&#12479;&#12511;&#12490;</text><text fill="#000000" font-family="sans-serif" font-size="14" lengthAdjust="spacing" textLength="10" x="102" y="138.8857">C</text><line style="stroke:#181818;stroke-width:1.0;" x1="97" x2="97" y1="123.8906" y2="144.1875"/><line style="stroke:#181818;stroke-width:1.0;" x1="31" x2="129" y1="144.1875" y2="144.1875"/><text fill="#000000" font-family="sans-serif" font-size="14" lengthAdjust="spacing" textLength="42" x="43" y="159.1826">&#12497;&#12527;&#12540;</text><text fill="#000000" font-family="sans-serif" font-size="14" lengthAdjust="spacing" textLength="11" x="102" y="159.1826">D</text><line style="stroke:#181818;stroke-width:1.0;" x1="97" x2="97" y1="144.1875" y2="164.4844"/><line style="stroke:#181818;stroke-width:1.0;" x1="31" x2="129" y1="164.4844" y2="164.4844"/><text fill="#000000" font-family="sans-serif" font-size="14" lengthAdjust="spacing" textLength="28" x="50" y="179.4795">&#26681;&#24615;</text><text fill="#000000" font-family="sans-serif" font-size="14" lengthAdjust="spacing" textLength="9" x="102" y="179.4795">E</text><line style="stroke:#181818;stroke-width:1.0;" x1="97" x2="97" y1="164.4844" y2="184.7813"/><line style="stroke:#181818;stroke-width:1.0;" x1="31" x2="129" y1="184.7813" y2="184.7813"/><text fill="#000000" font-family="sans-serif" font-size="14" lengthAdjust="spacing" textLength="28" x="50" y="199.7764">&#36066;&#12373;</text><text fill="#000000" font-family="sans-serif" font-size="14" lengthAdjust="spacing" textLength="21" x="102" y="199.7764">E+</text><line style="stroke:#181818;stroke-width:1.0;" x1="97" x2="97" y1="184.7813" y2="205.0781"/></g><!--class summer2--><g id="elem_summer2"><rect codeLine="12" fill="#F1F1F1" height="48" id="summer2" rx="2.5" ry="2.5" style="stroke:#181818;stroke-width:0.5;" width="74" x="260" y="119.7969"/><ellipse cx="275" cy="135.7969" fill="#E3664A" rx="11" ry="11" style="stroke:#181818;stroke-width:1.0;"/><path d="M277.0781,136.2656 Q277.0781,135.3281 276.6563,134.7969 Q276.2344,134.2656 275.4844,134.2656 Q274.75,134.2656 274.3281,134.7969 Q273.9219,135.3281 273.9219,136.2656 Q273.9219,137.2188 274.3281,137.75 Q274.75,138.2813 275.4844,138.2813 Q276.2344,138.2813 276.6563,137.75 Q277.0781,137.2188 277.0781,136.2656 Z M278.625,139.6719 L277,139.6719 L277,139 Q276.6719,139.4375 276.25,139.6406 Q275.8281,139.8438 275.2188,139.8438 Q273.8594,139.8438 273.0313,138.875 Q272.2031,137.8906 272.2031,136.2656 Q272.2031,134.6719 273.0313,133.7031 Q273.8594,132.7188 275.2188,132.7188 Q275.8125,132.7188 276.2656,132.9219 Q276.7188,133.125 277,133.5156 L277,133.1719 Q277,132.0469 276.375,131.4375 Q275.75,130.8125 274.6094,130.8125 Q272.8906,130.8125 271.7969,132.3438 Q270.7031,133.8594 270.7031,136.2969 Q270.7031,138.8438 271.9531,140.3438 Q273.2188,141.8438 275.3281,141.8438 Q275.9844,141.8438 276.6094,141.6563 Q277.2344,141.4688 277.8125,141.0781 L278.5781,142.5313 Q277.9063,142.9844 277.1094,143.2031 Q276.3125,143.4375 275.4063,143.4375 Q272.5,143.4375 270.7656,141.5 Q269.0469,139.5781 269.0469,136.2969 Q269.0469,133.0781 270.5938,131.1563 Q272.1563,129.2188 274.7188,129.2188 Q276.5156,129.2188 277.5625,130.3125 Q278.625,131.4063 278.625,133.2813 L278.625,139.6719 Z " fill="#000000"/><text fill="#000000" font-family="sans-serif" font-size="14" lengthAdjust="spacing" textLength="42" x="289" y="140.6436">&#22799;&#21512;&#23487;</text><line style="stroke:#181818;stroke-width:0.5;" x1="261" x2="333" y1="151.7969" y2="151.7969"/><line style="stroke:#181818;stroke-width:0.5;" x1="261" x2="333" y1="159.7969" y2="159.7969"/></g><!--class succesor2--><g id="elem_succesor2"><rect codeLine="15" fill="#F1F1F1" height="64.2969" id="succesor2" rx="2.5" ry="2.5" style="stroke:#181818;stroke-width:0.5;" width="119" x="163.5" y="271.1469"/><ellipse cx="179.85" cy="287.1469" fill="#E3664A" rx="11" ry="11" style="stroke:#181818;stroke-width:1.0;"/><path d="M181.9281,287.6156 Q181.9281,286.6781 181.5063,286.1469 Q181.0844,285.6156 180.3344,285.6156 Q179.6,285.6156 179.1781,286.1469 Q178.7719,286.6781 178.7719,287.6156 Q178.7719,288.5688 179.1781,289.1 Q179.6,289.6313 180.3344,289.6313 Q181.0844,289.6313 181.5063,289.1 Q181.9281,288.5688 181.9281,287.6156 Z M183.475,291.0219 L181.85,291.0219 L181.85,290.35 Q181.5219,290.7875 181.1,290.9906 Q180.6781,291.1938 180.0688,291.1938 Q178.7094,291.1938 177.8813,290.225 Q177.0531,289.2406 177.0531,287.6156 Q177.0531,286.0219 177.8813,285.0531 Q178.7094,284.0688 180.0688,284.0688 Q180.6625,284.0688 181.1156,284.2719 Q181.5688,284.475 181.85,284.8656 L181.85,284.5219 Q181.85,283.3969 181.225,282.7875 Q180.6,282.1625 179.4594,282.1625 Q177.7406,282.1625 176.6469,283.6938 Q175.5531,285.2094 175.5531,287.6469 Q175.5531,290.1938 176.8031,291.6938 Q178.0688,293.1938 180.1781,293.1938 Q180.8344,293.1938 181.4594,293.0063 Q182.0844,292.8188 182.6625,292.4281 L183.4281,293.8813 Q182.7563,294.3344 181.9594,294.5531 Q181.1625,294.7875 180.2563,294.7875 Q177.35,294.7875 175.6156,292.85 Q173.8969,290.9281 173.8969,287.6469 Q173.8969,284.4281 175.4438,282.5063 Q177.0063,280.5688 179.5688,280.5688 Q181.3656,280.5688 182.4125,281.6625 Q183.475,282.7563 183.475,284.6313 L183.475,291.0219 Z " fill="#000000"/><text fill="#000000" font-family="sans-serif" font-size="14" lengthAdjust="spacing" textLength="84" x="194.15" y="291.9936">&#32153;&#25215;&#12452;&#12505;&#12531;&#12488;</text><line style="stroke:#181818;stroke-width:0.5;" x1="164.5" x2="281.5" y1="303.1469" y2="303.1469"/><text fill="#000000" font-family="sans-serif" font-size="14" lengthAdjust="spacing" textLength="107" x="169.5" y="320.142">4&#26376;&#21069;&#21322;&#12398;&#38283;&#22987;&#21069;</text><line style="stroke:#181818;stroke-width:0.5;" x1="164.5" x2="281.5" y1="327.4438" y2="327.4438"/></g><ellipse cx="223" cy="143.7969" fill="#181818" rx="2" ry="2" style="stroke:#181818;stroke-width:1.0;"/><g id="elem_race11"><rect fill="#F1F1F1" height="121.7813" style="stroke:#181818;stroke-width:0.5;" width="99" x="425.5" y="83.2969"/><text fill="#000000" font-family="sans-serif" font-size="14" lengthAdjust="spacing" textLength="84" x="433" y="98.292">&#22825;&#30343;&#36062;&#65288;&#31179;&#65289;</text><line style="stroke:#181818;stroke-width:1.0;" x1="425.5" x2="524.5" y1="103.5938" y2="103.5938"/><text fill="#000000" font-family="sans-serif" font-size="14" lengthAdjust="spacing" textLength="56" x="430.5" y="118.5889">&#12473;&#12500;&#12540;&#12489;</text><text fill="#000000" font-family="sans-serif" font-size="14" lengthAdjust="spacing" textLength="10" x="496.5" y="118.5889">B</text><line style="stroke:#181818;stroke-width:1.0;" x1="491.5" x2="491.5" y1="103.5938" y2="123.8906"/><line style="stroke:#181818;stroke-width:1.0;" x1="425.5" x2="524.5" y1="123.8906" y2="123.8906"/><text fill="#000000" font-family="sans-serif" font-size="14" lengthAdjust="spacing" textLength="56" x="430.5" y="138.8857">&#12473;&#12479;&#12511;&#12490;</text><text fill="#000000" font-family="sans-serif" font-size="14" lengthAdjust="spacing" textLength="10" x="496.5" y="138.8857">C</text><line style="stroke:#181818;stroke-width:1.0;" x1="491.5" x2="491.5" y1="123.8906" y2="144.1875"/><line style="stroke:#181818;stroke-width:1.0;" x1="425.5" x2="524.5" y1="144.1875" y2="144.1875"/><text fill="#000000" font-family="sans-serif" font-size="14" lengthAdjust="spacing" textLength="42" x="437.5" y="159.1826">&#12497;&#12527;&#12540;</text><text fill="#000000" font-family="sans-serif" font-size="14" lengthAdjust="spacing" textLength="23" x="496.5" y="159.1826">D+</text><line style="stroke:#181818;stroke-width:1.0;" x1="491.5" x2="491.5" y1="144.1875" y2="164.4844"/><line style="stroke:#181818;stroke-width:1.0;" x1="425.5" x2="524.5" y1="164.4844" y2="164.4844"/><text fill="#000000" font-family="sans-serif" font-size="14" lengthAdjust="spacing" textLength="28" x="444.5" y="179.4795">&#26681;&#24615;</text><text fill="#000000" font-family="sans-serif" font-size="14" lengthAdjust="spacing" textLength="11" x="496.5" y="179.4795">D</text><line style="stroke:#181818;stroke-width:1.0;" x1="491.5" x2="491.5" y1="164.4844" y2="184.7813"/><line style="stroke:#181818;stroke-width:1.0;" x1="425.5" x2="524.5" y1="184.7813" y2="184.7813"/><text fill="#000000" font-family="sans-serif" font-size="14" lengthAdjust="spacing" textLength="28" x="444.5" y="199.7764">&#36066;&#12373;</text><text fill="#000000" font-family="sans-serif" font-size="14" lengthAdjust="spacing" textLength="23" x="496.5" y="199.7764">D+</text><line style="stroke:#181818;stroke-width:1.0;" x1="491.5" x2="491.5" y1="184.7813" y2="205.0781"/></g><g id="elem_skill1"><rect fill="#F1F1F1" height="60.8906" style="stroke:#181818;stroke-width:0.5;" width="123" x="413.5" y="273.2969"/><text fill="#000000" font-family="sans-serif" font-size="14" lengthAdjust="spacing" textLength="70" x="440" y="288.292">&#12473;&#12461;&#12523;&#21462;&#24471;</text><line style="stroke:#181818;stroke-width:1.0;" x1="413.5" x2="536.5" y1="293.5938" y2="293.5938"/><text fill="#000000" font-family="sans-serif" font-size="14" lengthAdjust="spacing" textLength="61" x="418.5" y="308.5889">&#36895;&#24230;UP&#31995;</text><text fill="#000000" font-family="sans-serif" font-size="14" lengthAdjust="spacing" textLength="28" x="489.5" y="308.5889">&#26411;&#33050;</text><line style="stroke:#181818;stroke-width:1.0;" x1="484.5" x2="484.5" y1="293.5938" y2="313.8906"/><line style="stroke:#181818;stroke-width:1.0;" x1="413.5" x2="536.5" y1="313.8906" y2="313.8906"/><text fill="#000000" font-family="sans-serif" font-size="14" lengthAdjust="spacing" textLength="14" x="442" y="328.8857">&#20182;</text><text fill="#000000" font-family="sans-serif" font-size="14" lengthAdjust="spacing" textLength="42" x="489.5" y="328.8857">&#38598;&#20013;&#21147;</text><line style="stroke:#181818;stroke-width:1.0;" x1="484.5" x2="484.5" y1="313.8906" y2="334.1875"/></g><g id="elem_race12"><rect fill="#F1F1F1" height="121.7813" style="stroke:#181818;stroke-width:0.5;" width="99" x="624.5" y="83.2969"/><text fill="#000000" font-family="sans-serif" font-size="14" lengthAdjust="spacing" textLength="56" x="646" y="98.292">&#26377;&#39340;&#35352;&#24565;</text><line style="stroke:#181818;stroke-width:1.0;" x1="624.5" x2="723.5" y1="103.5938" y2="103.5938"/><text fill="#000000" font-family="sans-serif" font-size="14" lengthAdjust="spacing" textLength="56" x="629.5" y="118.5889">&#12473;&#12500;&#12540;&#12489;</text><text fill="#000000" font-family="sans-serif" font-size="14" lengthAdjust="spacing" textLength="10" x="695.5" y="118.5889">B</text><line style="stroke:#181818;stroke-width:1.0;" x1="690.5" x2="690.5" y1="103.5938" y2="123.8906"/><line style="stroke:#181818;stroke-width:1.0;" x1="624.5" x2="723.5" y1="123.8906" y2="123.8906"/><text fill="#000000" font-family="sans-serif" font-size="14" lengthAdjust="spacing" textLength="56" x="629.5" y="138.8857">&#12473;&#12479;&#12511;&#12490;</text><text fill="#000000" font-family="sans-serif" font-size="14" lengthAdjust="spacing" textLength="22" x="695.5" y="138.8857">C+</text><line style="stroke:#181818;stroke-width:1.0;" x1="690.5" x2="690.5" y1="123.8906" y2="144.1875"/><line style="stroke:#181818;stroke-width:1.0;" x1="624.5" x2="723.5" y1="144.1875" y2="144.1875"/><text fill="#000000" font-family="sans-serif" font-size="14" lengthAdjust="spacing" textLength="42" x="636.5" y="159.1826">&#12497;&#12527;&#12540;</text><text fill="#000000" font-family="sans-serif" font-size="14" lengthAdjust="spacing" textLength="23" x="695.5" y="159.1826">D+</text><line style="stroke:#181818;stroke-width:1.0;" x1="690.5" x2="690.5" y1="144.1875" y2="164.4844"/><line style="stroke:#181818;stroke-width:1.0;" x1="624.5" x2="723.5" y1="164.4844" y2="164.4844"/><text fill="#000000" font-family="sans-serif" font-size="14" lengthAdjust="spacing" textLength="28" x="643.5" y="179.4795">&#26681;&#24615;</text><text fill="#000000" font-family="sans-serif" font-size="14" lengthAdjust="spacing" textLength="11" x="695.5" y="179.4795">D</text><line style="stroke:#181818;stroke-width:1.0;" x1="690.5" x2="690.5" y1="164.4844" y2="184.7813"/><line style="stroke:#181818;stroke-width:1.0;" x1="624.5" x2="723.5" y1="184.7813" y2="184.7813"/><text fill="#000000" font-family="sans-serif" font-size="14" lengthAdjust="spacing" textLength="28" x="643.5" y="199.7764">&#36066;&#12373;</text><text fill="#000000" font-family="sans-serif" font-size="14" lengthAdjust="spacing" textLength="10" x="695.5" y="199.7764">C</text><line style="stroke:#181818;stroke-width:1.0;" x1="690.5" x2="690.5" y1="184.7813" y2="205.0781"/></g><!--link race10 to apoint7--><g id="link_race10_apoint7"><path d="M136.93,143.7969 C171.51,143.7969 210.84,143.7969 220.68,143.7969 " fill="none" id="race10-apoint7" style="stroke:#181818;stroke-width:1.0;"/><text fill="#000000" font-family="sans-serif" font-size="13" lengthAdjust="spacing" textLength="47" x="155.5" y="136.8638">6&#12479;&#12540;&#12531;</text></g><!--link apoint7 to summer2--><g id="link_apoint7_summer2"><path d="M225.31,143.7969 C236.79,143.7969 242.27,143.7969 253.76,143.7969 " fill="none" id="apoint7-to-summer2" style="stroke:#181818;stroke-width:1.0;"/><polygon fill="#181818" points="259.76,143.7969,250.76,139.7969,254.76,143.7969,250.76,147.7969,259.76,143.7969" style="stroke:#181818;stroke-width:1.0;"/></g><!--link apoint7 to succesor2--><g id="link_apoint7_succesor2"><path d="M223,146.1569 C223,156.8969 223,228.5669 223,270.9869 " fill="none" id="apoint7-succesor2" style="stroke:#181818;stroke-width:1.0;"/></g><!--link summer2 to race11--><g id="link_summer2_race11"><path codeLine="26" d="M334.31,143.7969 C358.48,143.7969 384.41,143.7969 411.75,143.7969 " fill="none" id="summer2-to-race11" style="stroke:#181818;stroke-width:1.0;"/><polygon fill="#181818" points="417.75,143.7969,408.75,139.7969,412.75,143.7969,408.75,147.7969,417.75,143.7969" style="stroke:#181818;stroke-width:1.0;"/><text fill="#000000" font-family="sans-serif" font-size="13" lengthAdjust="spacing" textLength="47" x="352.25" y="136.8638">3&#12479;&#12540;&#12531;</text></g><!--reverse link race11 to skill1--><g id="link_race11_skill1"><path codeLine="32" d="M475,213.9469 C475,235.0069 475,251.6069 475,269.4069 " fill="none" id="race11-backto-skill1" style="stroke:#181818;stroke-width:1.0;stroke-dasharray:7.0,7.0;"/><polygon fill="#181818" points="475,207.9469,471,216.9469,475,212.9469,479,216.9469,475,207.9469" style="stroke:#181818;stroke-width:1.0;"/></g><!--link race11 to race12--><g id="link_race11_race12"><path codeLine="41" d="M532.29,143.7969 C558.82,143.7969 584.25,143.7969 610.77,143.7969 " fill="none" id="race11-to-race12" style="stroke:#181818;stroke-width:1.0;"/><polygon fill="#181818" points="616.77,143.7969,607.77,139.7969,611.77,143.7969,607.77,147.7969,616.77,143.7969" style="stroke:#181818;stroke-width:1.0;"/><text fill="#000000" font-family="sans-serif" font-size="13" lengthAdjust="spacing" textLength="47" x="551" y="136.8638">3&#12479;&#12540;&#12531;</text></g><!--SRC=[dP1DIm9H58Rt_ef3gyACj6WHvg9i7qK_O1Y66D8nT5f5e7EZ74KgA2kr38ci_5f8tv8_vdX7P-LVQERE-0b1jRdSyvx3-xuyiYW7140IHUKEIGsLTrHAI1f8oaW8aZYWyeeaYKh1uTZX-6rkIu0DGH93OV1wrmLUvgIjWE3pmPu38CZjm0IzA-gNJzfrRGAu28GvNd3FiYs0QK_EcBqAIpvOSVPbfOaaZoJ1P4ibfsOZqZ0bFvEqstSjMZJdLJPtwWMCdRFPTDft60ydII6PayMGP5OvfYTnMcsoAf7TO508UumRkvGhBBfyFHaMOO6rCChLnutQBrUQscICheormSLsv7aX4cAU_RzXDA_bubHDqLG2OrKzdQJ5f34QHvDMydGlT0fShY6N0SB7TkQeKx_fDkBjOhBRK0SitJ-mNFurIkSOI_yOIx_54lfaB4vs-YBCZM1YXLbi1Kc97gVfruK5PriC17fjzMYUVjnlhhNhdsQ4bYjr3Z9iq_fCcugUFMozLMWYQsVRQTwP6TkedwNbLFs-t7cufCtd0HRFtx0u_y5bPRJQ41NFA9NzRm00]--></g></svg>