<?xml version="1.0" encoding="us-ascii" standalone="no"?><svg xmlns="http://www.w3.org/2000/svg" xmlns:xlink="http://www.w3.org/1999/xlink" contentStyleType="text/css" height="335px" preserveAspectRatio="none" style="width:556px;height:335px;background:#FFFFFF;" version="1.1" viewBox="0 0 556 335" width="556px" zoomAndPan="magnify"><defs/><g><text fill="#000000" font-family="sans-serif" font-size="14" font-weight="bold" lengthAdjust="spacing" textLength="177" x="182.5" y="22.9951">&#12480;&#12452;&#12527;&#12473;&#12459;&#12540;&#12524;&#12483;&#12488; URA&#26479;</text><!--cluster URA--><g id="cluster_URA"><rect fill="none" height="285.59" rx="2.5" ry="2.5" style="stroke:#181818;stroke-width:1.0;" width="543" x="7" y="44.2969"/><path d="M49,44.2969 L49,53.5938 L39,63.5938 L7,63.5938 " fill="none" style="stroke:#181818;stroke-width:1.0;"/><text fill="#000000" font-family="sans-serif" font-size="14" font-weight="bold" lengthAdjust="spacing" textLength="32" x="10" y="58.292">URA</text></g><g id="elem_race1"><rect fill="#F1F1F1" height="121.7813" style="stroke:#181818;stroke-width:0.5;" width="99" x="31.5" y="83.2969"/><text fill="#000000" font-family="sans-serif" font-size="14" lengthAdjust="spacing" textLength="57" x="52.5" y="98.292">URA&#20104;&#36984;</text><line style="stroke:#181818;stroke-width:1.0;" x1="31.5" x2="130.5" y1="103.5938" y2="103.5938"/><text fill="#000000" font-family="sans-serif" font-size="14" lengthAdjust="spacing" textLength="56" x="36.5" y="118.5889">&#12473;&#12500;&#12540;&#12489;</text><text fill="#000000" font-family="sans-serif" font-size="14" lengthAdjust="spacing" textLength="10" x="102.5" y="118.5889">B</text><line style="stroke:#181818;stroke-width:1.0;" x1="97.5" x2="97.5" y1="103.5938" y2="123.8906"/><line style="stroke:#181818;stroke-width:1.0;" x1="31.5" x2="130.5" y1="123.8906" y2="123.8906"/><text fill="#000000" font-family="sans-serif" font-size="14" lengthAdjust="spacing" textLength="56" x="36.5" y="138.8857">&#12473;&#12479;&#12511;&#12490;</text><text fill="#000000" font-family="sans-serif" font-size="14" lengthAdjust="spacing" textLength="22" x="102.5" y="138.8857">C+</text><line style="stroke:#181818;stroke-width:1.0;" x1="97.5" x2="97.5" y1="123.8906" y2="144.1875"/><line style="stroke:#181818;stroke-width:1.0;" x1="31.5" x2="130.5" y1="144.1875" y2="144.1875"/><text fill="#000000" font-family="sans-serif" font-size="14" lengthAdjust="spacing" textLength="42" x="43.5" y="159.1826">&#12497;&#12527;&#12540;</text><text fill="#000000" font-family="sans-serif" font-size="14" lengthAdjust="spacing" textLength="23" x="102.5" y="159.1826">D+</text><line style="stroke:#181818;stroke-width:1.0;" x1="97.5" x2="97.5" y1="144.1875" y2="164.4844"/><line style="stroke:#181818;stroke-width:1.0;" x1="31.5" x2="130.5" y1="164.4844" y2="164.4844"/><text fill="#000000" font-family="sans-serif" font-size="14" lengthAdjust="spacing" textLength="28" x="50.5" y="179.4795">&#26681;&#24615;</text><text fill="#000000" font-family="sans-serif" font-size="14" lengthAdjust="spacing" textLength="11" x="102.5" y="179.4795">D</text><line style="stroke:#181818;stroke-width:1.0;" x1="97.5" x2="97.5" y1="164.4844" y2="184.7813"/><line style="stroke:#181818;stroke-width:1.0;" x1="31.5" x2="130.5" y1="184.7813" y2="184.7813"/><text fill="#000000" font-family="sans-serif" font-size="14" lengthAdjust="spacing" textLength="28" x="50.5" y="199.7764">&#36066;&#12373;</text><text fill="#000000" font-family="sans-serif" font-size="14" lengthAdjust="spacing" textLength="10" x="102.5" y="199.7764">C</text><line style="stroke:#181818;stroke-width:1.0;" x1="97.5" x2="97.5" y1="184.7813" y2="205.0781"/></g><g id="elem_race2"><rect fill="#F1F1F1" height="121.7813" style="stroke:#181818;stroke-width:0.5;" width="98" x="230" y="83.2969"/><text fill="#000000" font-family="sans-serif" font-size="14" lengthAdjust="spacing" textLength="71" x="243.5" y="98.292">URA&#28310;&#27770;&#21213;</text><line style="stroke:#181818;stroke-width:1.0;" x1="230" x2="328" y1="103.5938" y2="103.5938"/><text fill="#000000" font-family="sans-serif" font-size="14" lengthAdjust="spacing" textLength="56" x="235" y="118.5889">&#12473;&#12500;&#12540;&#12489;</text><text fill="#000000" font-family="sans-serif" font-size="14" lengthAdjust="spacing" textLength="10" x="301" y="118.5889">B</text><line style="stroke:#181818;stroke-width:1.0;" x1="296" x2="296" y1="103.5938" y2="123.8906"/><line style="stroke:#181818;stroke-width:1.0;" x1="230" x2="328" y1="123.8906" y2="123.8906"/><text fill="#000000" font-family="sans-serif" font-size="14" lengthAdjust="spacing" textLength="56" x="235" y="138.8857">&#12473;&#12479;&#12511;&#12490;</text><text fill="#000000" font-family="sans-serif" font-size="14" lengthAdjust="spacing" textLength="22" x="301" y="138.8857">C+</text><line style="stroke:#181818;stroke-width:1.0;" x1="296" x2="296" y1="123.8906" y2="144.1875"/><line style="stroke:#181818;stroke-width:1.0;" x1="230" x2="328" y1="144.1875" y2="144.1875"/><text fill="#000000" font-family="sans-serif" font-size="14" lengthAdjust="spacing" textLength="42" x="242" y="159.1826">&#12497;&#12527;&#12540;</text><text fill="#000000" font-family="sans-serif" font-size="14" lengthAdjust="spacing" textLength="10" x="301" y="159.1826">C</text><line style="stroke:#181818;stroke-width:1.0;" x1="296" x2="296" y1="144.1875" y2="164.4844"/><line style="stroke:#181818;stroke-width:1.0;" x1="230" x2="328" y1="164.4844" y2="164.4844"/><text fill="#000000" font-family="sans-serif" font-size="14" lengthAdjust="spacing" textLength="28" x="249" y="179.4795">&#26681;&#24615;</text><text fill="#000000" font-family="sans-serif" font-size="14" lengthAdjust="spacing" textLength="11" x="301" y="179.4795">D</text><line style="stroke:#181818;stroke-width:1.0;" x1="296" x2="296" y1="164.4844" y2="184.7813"/><line style="stroke:#181818;stroke-width:1.0;" x1="230" x2="328" y1="184.7813" y2="184.7813"/><text fill="#000000" font-family="sans-serif" font-size="14" lengthAdjust="spacing" textLength="28" x="249" y="199.7764">&#36066;&#12373;</text><text fill="#000000" font-family="sans-serif" font-size="14" lengthAdjust="spacing" textLength="10" x="301" y="199.7764">C</text><line style="stroke:#181818;stroke-width:1.0;" x1="296" x2="296" y1="184.7813" y2="205.0781"/></g><g id="elem_race3"><rect fill="#F1F1F1" height="121.7813" style="stroke:#181818;stroke-width:0.5;" width="98" x="428" y="83.2969"/><text fill="#000000" font-family="sans-serif" font-size="14" lengthAdjust="spacing" textLength="57" x="448.5" y="98.292">URA&#27770;&#21213;</text><line style="stroke:#181818;stroke-width:1.0;" x1="428" x2="526" y1="103.5938" y2="103.5938"/><text fill="#000000" font-family="sans-serif" font-size="14" lengthAdjust="spacing" textLength="56" x="433" y="118.5889">&#12473;&#12500;&#12540;&#12489;</text><text fill="#000000" font-family="sans-serif" font-size="14" lengthAdjust="spacing" textLength="22" x="499" y="118.5889">B+</text><line style="stroke:#181818;stroke-width:1.0;" x1="494" x2="494" y1="103.5938" y2="123.8906"/><line style="stroke:#181818;stroke-width:1.0;" x1="428" x2="526" y1="123.8906" y2="123.8906"/><text fill="#000000" font-family="sans-serif" font-size="14" lengthAdjust="spacing" textLength="56" x="433" y="138.8857">&#12473;&#12479;&#12511;&#12490;</text><text fill="#000000" font-family="sans-serif" font-size="14" lengthAdjust="spacing" textLength="22" x="499" y="138.8857">C+</text><line style="stroke:#181818;stroke-width:1.0;" x1="494" x2="494" y1="123.8906" y2="144.1875"/><line style="stroke:#181818;stroke-width:1.0;" x1="428" x2="526" y1="144.1875" y2="144.1875"/><text fill="#000000" font-family="sans-serif" font-size="14" lengthAdjust="spacing" textLength="42" x="440" y="159.1826">&#12497;&#12527;&#12540;</text><text fill="#000000" font-family="sans-serif" font-size="14" lengthAdjust="spacing" textLength="10" x="499" y="159.1826">C</text><line style="stroke:#181818;stroke-width:1.0;" x1="494" x2="494" y1="144.1875" y2="164.4844"/><line style="stroke:#181818;stroke-width:1.0;" x1="428" x2="526" y1="164.4844" y2="164.4844"/><text fill="#000000" font-family="sans-serif" font-size="14" lengthAdjust="spacing" textLength="28" x="447" y="179.4795">&#26681;&#24615;</text><text fill="#000000" font-family="sans-serif" font-size="14" lengthAdjust="spacing" textLength="11" x="499" y="179.4795">D</text><line style="stroke:#181818;stroke-width:1.0;" x1="494" x2="494" y1="164.4844" y2="184.7813"/><line style="stroke:#181818;stroke-width:1.0;" x1="428" x2="526" y1="184.7813" y2="184.7813"/><text fill="#000000" font-family="sans-serif" font-size="14" lengthAdjust="spacing" textLength="28" x="447" y="199.7764">&#36066;&#12373;</text><text fill="#000000" font-family="sans-serif" font-size="14" lengthAdjust="spacing" textLength="10" x="499" y="199.7764">C</text><line style="stroke:#181818;stroke-width:1.0;" x1="494" x2="494" y1="184.7813" y2="205.0781"/></g><g id="elem_skill"><rect fill="#F1F1F1" height="44.5938" style="stroke:#181818;stroke-width:0.5;" width="236" x="161" y="269.2969"/><text fill="#000000" font-family="sans-serif" font-size="14" lengthAdjust="spacing" textLength="42" x="258" y="284.292">&#12473;&#12461;&#12523;</text><line style="stroke:#181818;stroke-width:0.5;" x1="162" x2="396" y1="289.5938" y2="289.5938"/><text fill="#000000" font-family="sans-serif" font-size="14" lengthAdjust="spacing" textLength="224" x="167" y="306.5889">&#12509;&#12452;&#12531;&#12488;&#12364;&#28316;&#12414;&#12387;&#12383;&#12425;&#12473;&#12461;&#12523;&#12434;&#21462;&#24471;</text></g><!--link race1 to race2--><g id="link_race1_race2"><path codeLine="19" d="M138.27,143.7969 C164.65,143.7969 189.88,143.7969 216.2,143.7969 " fill="none" id="race1-to-race2" style="stroke:#181818;stroke-width:1.0;"/><polygon fill="#181818" points="222.2,143.7969,213.2,139.7969,217.2,143.7969,213.2,147.7969,222.2,143.7969" style="stroke:#181818;stroke-width:1.0;"/><text fill="#000000" font-family="sans-serif" font-size="13" lengthAdjust="spacing" textLength="47" x="156.75" y="136.8638">1&#12479;&#12540;&#12531;</text></g><!--link race2 to race3--><g id="link_race2_race3"><path codeLine="28" d="M335.74,143.7969 C362.25,143.7969 387.74,143.7969 414.25,143.7969 " fill="none" id="race2-to-race3" style="stroke:#181818;stroke-width:1.0;"/><polygon fill="#181818" points="420.25,143.7969,411.25,139.7969,415.25,143.7969,411.25,147.7969,420.25,143.7969" style="stroke:#181818;stroke-width:1.0;"/><text fill="#000000" font-family="sans-serif" font-size="13" lengthAdjust="spacing" textLength="47" x="354.5" y="136.8638">1&#12479;&#12540;&#12531;</text></g><!--reverse link race1 to skill--><g id="link_race1_skill"><path codeLine="33" d="M143.1018,190.5241 C179.5318,217.3441 220.37,247.4169 249.62,268.9569 " fill="none" id="race1-backto-skill" style="stroke:#181818;stroke-width:1.0;stroke-dasharray:7.0,7.0;"/><polygon fill="#181818" points="138.27,186.9669,143.1462,195.5239,142.2965,189.9312,147.8892,189.0815,138.27,186.9669" style="stroke:#181818;stroke-width:1.0;"/></g><!--reverse link race2 to skill--><g id="link_race2_skill"><path codeLine="34" d="M279,213.8969 C279,235.7469 279,252.8069 279,268.9969 " fill="none" id="race2-backto-skill" style="stroke:#181818;stroke-width:1.0;stroke-dasharray:7.0,7.0;"/><polygon fill="#181818" points="279,207.8969,275,216.8969,279,212.8969,283,216.8969,279,207.8969" style="stroke:#181818;stroke-width:1.0;"/></g><!--reverse link race3 to skill--><g id="link_race3_skill"><path codeLine="35" d="M415.4285,190.1345 C378.9785,216.9745 337.94,247.1869 308.54,268.8369 " fill="none" id="race3-backto-skill" style="stroke:#181818;stroke-width:1.0;stroke-dasharray:7.0,7.0;"/><polygon fill="#181818" points="420.26,186.5769,410.641,188.6924,416.2338,189.5416,415.3846,195.1343,420.26,186.5769" style="stroke:#181818;stroke-width:1.0;"/></g><!--SRC=[jPB1IiD048RlUOgXrz92aflKW5Py0C47Y258R8eXZISfT7SkhGgYQBqOAYfuQAL8BZQK-Z1ZWhw5cqq9BLOGnDCot_3FV0iJE85h0s67-2FXcFY4-91mIZWYHC8kxEvifE5OKJpJQfZxTbP3hRRjcqtRCE1O0MYQ7fG4Ve-xd-or16OBVDEoLTa4o6RYbPpPWtK3DWlAtmW7X2SPhPTpZ1UP1aupjfMpz6wITfuaaFL7T4_iMeP4tLOM5DAudxx4oMbOM6X_jgZ_IWBcVwxuJiMORru3LKuNEwCbosL5_IV5yhyuQWkE-ZV7mxq3smgW9BS-4mwbPglXkAxeobTa24DvC96u469dQNnBR4RiWTY0UA_84hzCpll9x4OfijKZhvhlLbSmRGNJbVON]--></g></svg>