<?xml version="1.0" encoding="us-ascii" standalone="no"?><svg xmlns="http://www.w3.org/2000/svg" xmlns:xlink="http://www.w3.org/1999/xlink" contentStyleType="text/css" height="369px" preserveAspectRatio="none" style="width:476px;height:369px;background:#FFFFFF;" version="1.1" viewBox="0 0 476 369" width="476px" zoomAndPan="magnify"><defs/><g><rect fill="#FFFFFF" height="158.6641" style="stroke:#181818;stroke-width:1.0;" width="10" x="171" y="112.4297"/><rect fill="#FFFFFF" height="58.2656" style="stroke:#181818;stroke-width:1.0;" width="10" x="281" y="141.5625"/><rect fill="#FFFFFF" height="100.3984" style="stroke:#181818;stroke-width:1.0;" width="10" x="392" y="170.6953"/><line style="stroke:#181818;stroke-width:0.5;stroke-dasharray:5.0,5.0;" x1="24" x2="24" y1="81.2969" y2="289.0938"/><line style="stroke:#181818;stroke-width:0.5;stroke-dasharray:5.0,5.0;" x1="175.5" x2="175.5" y1="81.2969" y2="289.0938"/><line style="stroke:#181818;stroke-width:0.5;stroke-dasharray:5.0,5.0;" x1="286" x2="286" y1="81.2969" y2="289.0938"/><line style="stroke:#181818;stroke-width:0.5;stroke-dasharray:5.0,5.0;" x1="396.5" x2="396.5" y1="81.2969" y2="289.0938"/><text fill="#000000" font-family="sans-serif" font-size="14" lengthAdjust="spacing" textLength="32" x="5" y="77.9951">User</text><ellipse cx="24" cy="13.5" fill="#E2E2F0" rx="8" ry="8" style="stroke:#181818;stroke-width:0.5;"/><path d="M24,21.5 L24,48.5 M11,29.5 L37,29.5 M24,48.5 L11,63.5 M24,48.5 L37,63.5 " fill="none" style="stroke:#181818;stroke-width:0.5;"/><text fill="#000000" font-family="sans-serif" font-size="14" lengthAdjust="spacing" textLength="32" x="5" y="301.0889">User</text><ellipse cx="24" cy="312.8906" fill="#E2E2F0" rx="8" ry="8" style="stroke:#181818;stroke-width:0.5;"/><path d="M24,320.8906 L24,347.8906 M11,328.8906 L37,328.8906 M24,347.8906 L11,362.8906 M24,347.8906 L37,362.8906 " fill="none" style="stroke:#181818;stroke-width:0.5;"/><rect fill="#E2E2F0" height="30.2969" rx="2.5" ry="2.5" style="stroke:#181818;stroke-width:0.5;" width="61" x="145.5" y="50"/><text fill="#000000" font-family="sans-serif" font-size="14" lengthAdjust="spacing" textLength="47" x="152.5" y="69.9951">GitHub</text><rect fill="#E2E2F0" height="30.2969" rx="2.5" ry="2.5" style="stroke:#181818;stroke-width:0.5;" width="61" x="145.5" y="288.0938"/><text fill="#000000" font-family="sans-serif" font-size="14" lengthAdjust="spacing" textLength="47" x="152.5" y="308.0889">GitHub</text><rect fill="#E2E2F0" height="30.2969" rx="2.5" ry="2.5" style="stroke:#181818;stroke-width:0.5;" width="108" x="232" y="50"/><text fill="#000000" font-family="sans-serif" font-size="14" lengthAdjust="spacing" textLength="94" x="239" y="69.9951">OrphanAction</text><rect fill="#E2E2F0" height="30.2969" rx="2.5" ry="2.5" style="stroke:#181818;stroke-width:0.5;" width="108" x="232" y="288.0938"/><text fill="#000000" font-family="sans-serif" font-size="14" lengthAdjust="spacing" textLength="94" x="239" y="308.0889">OrphanAction</text><rect fill="#E2E2F0" height="30.2969" rx="2.5" ry="2.5" style="stroke:#181818;stroke-width:0.5;" width="89" x="352.5" y="50"/><text fill="#000000" font-family="sans-serif" font-size="14" lengthAdjust="spacing" textLength="75" x="359.5" y="69.9951">MainAction</text><rect fill="#E2E2F0" height="30.2969" rx="2.5" ry="2.5" style="stroke:#181818;stroke-width:0.5;" width="89" x="352.5" y="288.0938"/><text fill="#000000" font-family="sans-serif" font-size="14" lengthAdjust="spacing" textLength="75" x="359.5" y="308.0889">MainAction</text><rect fill="#FFFFFF" height="158.6641" style="stroke:#181818;stroke-width:1.0;" width="10" x="171" y="112.4297"/><rect fill="#FFFFFF" height="58.2656" style="stroke:#181818;stroke-width:1.0;" width="10" x="281" y="141.5625"/><rect fill="#FFFFFF" height="100.3984" style="stroke:#181818;stroke-width:1.0;" width="10" x="392" y="170.6953"/><line style="stroke:#181818;stroke-width:2.0;" x1="153" x2="163" y1="107.4297" y2="117.4297"/><line style="stroke:#181818;stroke-width:2.0;" x1="153" x2="163" y1="117.4297" y2="107.4297"/><line style="stroke:#181818;stroke-width:1.0;" x1="24" x2="158" y1="112.4297" y2="112.4297"/><text fill="#000000" font-family="sans-serif" font-size="13" lengthAdjust="spacing" textLength="128" x="31" y="107.3638">push orphan branch</text><polygon fill="#181818" points="269,137.5625,279,141.5625,269,145.5625,273,141.5625" style="stroke:#181818;stroke-width:1.0;"/><line style="stroke:#181818;stroke-width:1.0;" x1="181" x2="275" y1="141.5625" y2="141.5625"/><text fill="#000000" font-family="sans-serif" font-size="13" lengthAdjust="spacing" textLength="81" x="188" y="136.4966">"push" event</text><line style="stroke:#181818;stroke-width:2.0;" x1="374" x2="384" y1="165.6953" y2="175.6953"/><line style="stroke:#181818;stroke-width:2.0;" x1="374" x2="384" y1="175.6953" y2="165.6953"/><line style="stroke:#181818;stroke-width:1.0;" x1="291" x2="379" y1="170.6953" y2="170.6953"/><text fill="#000000" font-family="sans-serif" font-size="13" lengthAdjust="spacing" textLength="82" x="298" y="165.6294">trigger event</text><polygon fill="#181818" points="192,195.8281,182,199.8281,192,203.8281,188,199.8281" style="stroke:#181818;stroke-width:1.0;"/><line style="stroke:#181818;stroke-width:1.0;stroke-dasharray:2.0,2.0;" x1="186" x2="285" y1="199.8281" y2="199.8281"/><text fill="#000000" font-family="sans-serif" font-size="13" lengthAdjust="spacing" textLength="23" x="198" y="194.7622">exit</text><line style="stroke:#181818;stroke-width:1.0;" x1="402" x2="444" y1="228.9609" y2="228.9609"/><line style="stroke:#181818;stroke-width:1.0;" x1="444" x2="444" y1="228.9609" y2="241.9609"/><line style="stroke:#181818;stroke-width:1.0;" x1="403" x2="444" y1="241.9609" y2="241.9609"/><polygon fill="#181818" points="413,237.9609,403,241.9609,413,245.9609,409,241.9609" style="stroke:#181818;stroke-width:1.0;"/><text fill="#000000" font-family="sans-serif" font-size="13" lengthAdjust="spacing" textLength="60" x="409" y="223.895">working...</text><polygon fill="#181818" points="187,267.0938,177,271.0938,187,275.0938,183,271.0938" style="stroke:#181818;stroke-width:1.0;"/><line style="stroke:#181818;stroke-width:1.0;stroke-dasharray:2.0,2.0;" x1="181" x2="396" y1="271.0938" y2="271.0938"/><text fill="#000000" font-family="sans-serif" font-size="13" lengthAdjust="spacing" textLength="23" x="193" y="266.0278">exit</text><!--SRC=[RP113i8W54Jtd6BIFHo061DNkZ6kF0150iG46afhZozKsb9rGyZyD_C7X8m-uDwhG4W-GIUSRRmCBKStz0O-T4Ouj44uQOYGqOuYgi8Gb0le4RUPF2N2EuucknkeKRcOiDLOKqd7JiZRhyAk8J5OhLEf9QNAsR1PBpKEbEu3ETHai_MX_bT8eoqgFwFU__BXQPrcZ7rXYLj-wJU_gbQf7_uD]--></g></svg>