<?xml version="1.0" encoding="us-ascii" standalone="no"?><svg xmlns="http://www.w3.org/2000/svg" xmlns:xlink="http://www.w3.org/1999/xlink" contentStyleType="text/css" height="373px" preserveAspectRatio="none" style="width:648px;height:373px;background:#FFFFFF;" version="1.1" viewBox="0 0 648 373" width="648px" zoomAndPan="magnify"><defs/><g><polygon fill="#F1F1F1" points="265,11.8989,400,11.8989,412,23.8989,400,35.8989,265,35.8989,253,23.8989,265,11.8989" style="stroke:#181818;stroke-width:0.5;"/><text fill="#000000" font-family="sans-serif" font-size="11" lengthAdjust="spacing" textLength="135" x="265" y="27.707">&#12522;&#12509;&#12472;&#12488;&#12522;&#12391;git&#20316;&#26989;&#12377;&#12427;&#65311;</text><text fill="#000000" font-family="sans-serif" font-size="11" lengthAdjust="spacing" textLength="20" x="233" y="21.3047">yes</text><text fill="#000000" font-family="sans-serif" font-size="11" lengthAdjust="spacing" textLength="14" x="412" y="21.3047">no</text><polygon fill="#F1F1F1" points="103,45.8989,235,45.8989,247,57.8989,235,69.8989,103,69.8989,91,57.8989,103,45.8989" style="stroke:#181818;stroke-width:0.5;"/><text fill="#000000" font-family="sans-serif" font-size="11" lengthAdjust="spacing" textLength="132" x="103" y="61.707">&#12522;&#12509;&#12472;&#12488;&#12522;&#12364;&#22823;&#12365;&#12377;&#12366;&#12427;&#65311;</text><text fill="#000000" font-family="sans-serif" font-size="11" lengthAdjust="spacing" textLength="20" x="71" y="55.3047">yes</text><text fill="#000000" font-family="sans-serif" font-size="11" lengthAdjust="spacing" textLength="14" x="247" y="55.3047">no</text><rect fill="#90EE90" height="33.9688" rx="12.5" ry="12.5" style="stroke:#181818;stroke-width:0.5;" width="140" x="11" y="79.8989"/><text fill="#000000" font-family="sans-serif" font-size="12" font-weight="bold" lengthAdjust="spacing" textLength="120" x="21" y="101.0376">&#12502;&#12525;&#12502;&#12524;&#12473;&#12539;&#12463;&#12525;&#12540;&#12531;</text><rect fill="#90EE90" height="33.9688" rx="12.5" ry="12.5" style="stroke:#181818;stroke-width:0.5;" width="104" x="205" y="79.8989"/><text fill="#000000" font-family="sans-serif" font-size="12" font-weight="bold" lengthAdjust="spacing" textLength="84" x="215" y="101.0376">&#36890;&#24120;&#12398;&#12463;&#12525;&#12540;&#12531;</text><polygon fill="#F1F1F1" points="169,119.8677,181,131.8677,169,143.8677,157,131.8677,169,119.8677" style="stroke:#181818;stroke-width:0.5;"/><polygon fill="#F1F1F1" points="441,45.8989,551,45.8989,563,57.8989,551,69.8989,441,69.8989,429,57.8989,441,45.8989" style="stroke:#181818;stroke-width:0.5;"/><text fill="#000000" font-family="sans-serif" font-size="11" lengthAdjust="spacing" textLength="110" x="441" y="61.707">&#12467;&#12511;&#12483;&#12488;&#23653;&#27508;&#12364;&#24517;&#35201;&#65311;</text><text fill="#000000" font-family="sans-serif" font-size="11" lengthAdjust="spacing" textLength="20" x="409" y="55.3047">yes</text><text fill="#000000" font-family="sans-serif" font-size="11" lengthAdjust="spacing" textLength="14" x="563" y="55.3047">no</text><rect fill="#90EE90" height="33.9688" rx="12.5" ry="12.5" style="stroke:#181818;stroke-width:0.5;" width="140" x="349" y="79.8989"/><text fill="#000000" font-family="sans-serif" font-size="12" font-weight="bold" lengthAdjust="spacing" textLength="120" x="359" y="101.0376">&#12484;&#12522;&#12540;&#12524;&#12473;&#12539;&#12463;&#12525;&#12540;&#12531;</text><rect fill="#90EE90" height="33.9688" rx="12.5" ry="12.5" style="stroke:#181818;stroke-width:0.5;" width="128" x="509" y="79.8989"/><text fill="#000000" font-family="sans-serif" font-size="12" font-weight="bold" lengthAdjust="spacing" textLength="108" x="519" y="101.0376">&#12471;&#12515;&#12525;&#12540;&#12539;&#12463;&#12525;&#12540;&#12531;</text><polygon fill="#F1F1F1" points="496,119.8677,508,131.8677,496,143.8677,484,131.8677,496,119.8677" style="stroke:#181818;stroke-width:0.5;"/><polygon fill="#F1F1F1" points="332.5,149.8677,344.5,161.8677,332.5,173.8677,320.5,161.8677,332.5,149.8677" style="stroke:#181818;stroke-width:0.5;"/><rect fill="#B0C4DE" height="33.9688" rx="12.5" ry="12.5" style="stroke:#181818;stroke-width:0.5;" width="138" x="263.5" y="242.27"/><text fill="#000000" font-family="sans-serif" font-size="12" font-weight="bold" lengthAdjust="spacing" textLength="118" x="273.5" y="263.4087">sparse-checkout</text><polygon fill="#F1F1F1" points="226,193.8677,439,193.8677,451,205.8677,439,217.8677,226,217.8677,214,205.8677,226,193.8677" style="stroke:#181818;stroke-width:0.5;"/><text fill="#000000" font-family="sans-serif" font-size="11" lengthAdjust="spacing" textLength="20" x="336.5" y="228.0781">yes</text><text fill="#000000" font-family="sans-serif" font-size="11" lengthAdjust="spacing" textLength="213" x="226" y="209.6758">&#19968;&#37096;&#12398;&#12501;&#12449;&#12452;&#12523;/&#12487;&#12451;&#12524;&#12463;&#12488;&#12522;&#12384;&#12369;&#12364;&#24517;&#35201;&#65311;</text><text fill="#000000" font-family="sans-serif" font-size="11" lengthAdjust="spacing" textLength="14" x="451" y="203.2734">no</text><polygon fill="#F1F1F1" points="332.5,296.2388,344.5,308.2388,332.5,320.2388,320.5,308.2388,332.5,296.2388" style="stroke:#181818;stroke-width:0.5;"/><ellipse cx="332.5" cy="351.2388" fill="none" rx="11" ry="11" style="stroke:#222222;stroke-width:1.0;"/><ellipse cx="332.5" cy="351.2388" fill="#222222" rx="6" ry="6" style="stroke:#222222;stroke-width:1.0;"/><line style="stroke:#181818;stroke-width:1.0;" x1="91" x2="81" y1="57.8989" y2="57.8989"/><line style="stroke:#181818;stroke-width:1.0;" x1="81" x2="81" y1="57.8989" y2="79.8989"/><polygon fill="#181818" points="77,69.8989,81,79.8989,85,69.8989,81,73.8989" style="stroke:#181818;stroke-width:1.0;"/><line style="stroke:#181818;stroke-width:1.0;" x1="247" x2="257" y1="57.8989" y2="57.8989"/><line style="stroke:#181818;stroke-width:1.0;" x1="257" x2="257" y1="57.8989" y2="79.8989"/><polygon fill="#181818" points="253,69.8989,257,79.8989,261,69.8989,257,73.8989" style="stroke:#181818;stroke-width:1.0;"/><line style="stroke:#181818;stroke-width:1.0;" x1="81" x2="81" y1="113.8677" y2="131.8677"/><line style="stroke:#181818;stroke-width:1.0;" x1="81" x2="157" y1="131.8677" y2="131.8677"/><polygon fill="#181818" points="147,127.8677,157,131.8677,147,135.8677,151,131.8677" style="stroke:#181818;stroke-width:1.0;"/><line style="stroke:#181818;stroke-width:1.0;" x1="257" x2="257" y1="113.8677" y2="131.8677"/><line style="stroke:#181818;stroke-width:1.0;" x1="257" x2="181" y1="131.8677" y2="131.8677"/><polygon fill="#181818" points="191,127.8677,181,131.8677,191,135.8677,187,131.8677" style="stroke:#181818;stroke-width:1.0;"/><line style="stroke:#181818;stroke-width:1.0;" x1="429" x2="419" y1="57.8989" y2="57.8989"/><line style="stroke:#181818;stroke-width:1.0;" x1="419" x2="419" y1="57.8989" y2="79.8989"/><polygon fill="#181818" points="415,69.8989,419,79.8989,423,69.8989,419,73.8989" style="stroke:#181818;stroke-width:1.0;"/><line style="stroke:#181818;stroke-width:1.0;" x1="563" x2="573" y1="57.8989" y2="57.8989"/><line style="stroke:#181818;stroke-width:1.0;" x1="573" x2="573" y1="57.8989" y2="79.8989"/><polygon fill="#181818" points="569,69.8989,573,79.8989,577,69.8989,573,73.8989" style="stroke:#181818;stroke-width:1.0;"/><line style="stroke:#181818;stroke-width:1.0;" x1="419" x2="419" y1="113.8677" y2="131.8677"/><line style="stroke:#181818;stroke-width:1.0;" x1="419" x2="484" y1="131.8677" y2="131.8677"/><polygon fill="#181818" points="474,127.8677,484,131.8677,474,135.8677,478,131.8677" style="stroke:#181818;stroke-width:1.0;"/><line style="stroke:#181818;stroke-width:1.0;" x1="573" x2="573" y1="113.8677" y2="131.8677"/><line style="stroke:#181818;stroke-width:1.0;" x1="573" x2="508" y1="131.8677" y2="131.8677"/><polygon fill="#181818" points="518,127.8677,508,131.8677,518,135.8677,514,131.8677" style="stroke:#181818;stroke-width:1.0;"/><line style="stroke:#181818;stroke-width:1.0;" x1="253" x2="169" y1="23.8989" y2="23.8989"/><line style="stroke:#181818;stroke-width:1.0;" x1="169" x2="169" y1="23.8989" y2="45.8989"/><polygon fill="#181818" points="165,35.8989,169,45.8989,173,35.8989,169,39.8989" style="stroke:#181818;stroke-width:1.0;"/><line style="stroke:#181818;stroke-width:1.0;" x1="412" x2="496" y1="23.8989" y2="23.8989"/><line style="stroke:#181818;stroke-width:1.0;" x1="496" x2="496" y1="23.8989" y2="45.8989"/><polygon fill="#181818" points="492,35.8989,496,45.8989,500,35.8989,496,39.8989" style="stroke:#181818;stroke-width:1.0;"/><line style="stroke:#181818;stroke-width:1.0;" x1="169" x2="169" y1="143.8677" y2="161.8677"/><line style="stroke:#181818;stroke-width:1.0;" x1="169" x2="320.5" y1="161.8677" y2="161.8677"/><polygon fill="#181818" points="310.5,157.8677,320.5,161.8677,310.5,165.8677,314.5,161.8677" style="stroke:#181818;stroke-width:1.0;"/><line style="stroke:#181818;stroke-width:1.0;" x1="496" x2="496" y1="143.8677" y2="161.8677"/><line style="stroke:#181818;stroke-width:1.0;" x1="496" x2="344.5" y1="161.8677" y2="161.8677"/><polygon fill="#181818" points="354.5,157.8677,344.5,161.8677,354.5,165.8677,350.5,161.8677" style="stroke:#181818;stroke-width:1.0;"/><line style="stroke:#181818;stroke-width:1.0;" x1="332.5" x2="332.5" y1="217.8677" y2="242.27"/><polygon fill="#181818" points="328.5,232.27,332.5,242.27,336.5,232.27,332.5,236.27" style="stroke:#181818;stroke-width:1.0;"/><line style="stroke:#181818;stroke-width:1.0;" x1="451" x2="463" y1="205.8677" y2="205.8677"/><polygon fill="#181818" points="459,249.2544,463,259.2544,467,249.2544,463,253.2544" style="stroke:#181818;stroke-width:1.0;"/><line style="stroke:#181818;stroke-width:1.0;" x1="463" x2="463" y1="205.8677" y2="308.2388"/><line style="stroke:#181818;stroke-width:1.0;" x1="463" x2="344.5" y1="308.2388" y2="308.2388"/><polygon fill="#181818" points="354.5,304.2388,344.5,308.2388,354.5,312.2388,350.5,308.2388" style="stroke:#181818;stroke-width:1.0;"/><line style="stroke:#181818;stroke-width:1.0;" x1="332.5" x2="332.5" y1="276.2388" y2="296.2388"/><polygon fill="#181818" points="328.5,286.2388,332.5,296.2388,336.5,286.2388,332.5,290.2388" style="stroke:#181818;stroke-width:1.0;"/><line style="stroke:#181818;stroke-width:1.0;" x1="332.5" x2="332.5" y1="173.8677" y2="193.8677"/><polygon fill="#181818" points="328.5,183.8677,332.5,193.8677,336.5,183.8677,332.5,187.8677" style="stroke:#181818;stroke-width:1.0;"/><line style="stroke:#181818;stroke-width:1.0;" x1="332.5" x2="332.5" y1="320.2388" y2="340.2388"/><polygon fill="#181818" points="328.5,330.2388,332.5,340.2388,336.5,330.2388,332.5,334.2388" style="stroke:#181818;stroke-width:1.0;"/><!--SRC=[fP7FIiD048VlUOg0bpGWlUlDYnTlFe6qsoOOaj9i3zwwEug2Vy23Wg9KQMj5JOjKCDA83_DhYZtv2cPNYmXj4Pp3C2pyXk_RSKkc1Re3NKB6e3qrYqxPvSFNYr4xWZY3tFz86ZcJEymthIqMvWmpAtTQy21jTI0ELKeSpGYgMbXpomvVhJBcBzasw1GKwVu0-G8QGFRqImBgs_QopZ4lPARb1xEsZEldQHn3TAU6_Q9RCdwlq0Qo3sg0A3D87zkZw4b9lEsytuY_ic_hNqZ-nGxv36fEOeCv1heR2dqOryTqgtpf1F8QiWMwpuDs8PiQfZUvoXN4yLojBvXrpfYtujLO1XHMDgeXMomuhB0PrBY2-77uXWXvKFa4]--></g></svg>