<?xml version="1.0" encoding="us-ascii" standalone="no"?><svg xmlns="http://www.w3.org/2000/svg" xmlns:xlink="http://www.w3.org/1999/xlink" contentStyleType="text/css" height="185px" preserveAspectRatio="none" style="width:289px;height:185px;background:#FFFFFF;" version="1.1" viewBox="0 0 289 185" width="289px" zoomAndPan="magnify"><defs/><g><rect fill="#F1F1F1" height="33.9688" rx="12.5" ry="12.5" style="stroke:#181818;stroke-width:0.5;" width="116" x="91" y="11"/><text fill="#000000" font-family="sans-serif" font-size="12" lengthAdjust="spacing" textLength="96" x="101" y="32.1387">&#12467;&#12510;&#12531;&#12489;&#12431;&#12363;&#12425;&#12435;</text><polygon fill="#F1F1F1" points="32,64.9688,99,64.9688,111,76.9688,99,88.9688,32,88.9688,20,76.9688,32,64.9688" style="stroke:#181818;stroke-width:0.5;"/><text fill="#000000" font-family="sans-serif" font-size="11" lengthAdjust="spacing" textLength="44" x="69.5" y="99.1792">&#12431;&#12363;&#12387;&#12383;</text><text fill="#000000" font-family="sans-serif" font-size="11" lengthAdjust="spacing" textLength="67" x="32" y="80.7769">tldr &#12391;&#35519;&#12409;&#12427;</text><polygon fill="#F1F1F1" points="143,64.9688,216,64.9688,228,76.9688,216,88.9688,143,88.9688,131,76.9688,143,64.9688" style="stroke:#181818;stroke-width:0.5;"/><text fill="#000000" font-family="sans-serif" font-size="11" lengthAdjust="spacing" textLength="44" x="183.5" y="99.1792">&#12431;&#12363;&#12387;&#12383;</text><text fill="#000000" font-family="sans-serif" font-size="11" lengthAdjust="spacing" textLength="73" x="143" y="80.7769">man &#12391;&#35519;&#12409;&#12427;</text><text fill="#000000" font-family="sans-serif" font-size="11" lengthAdjust="spacing" textLength="33" x="228" y="74.3745">&#12464;&#12464;&#12427;</text><rect fill="#F1F1F1" height="33.9688" rx="12.5" ry="12.5" style="stroke:#181818;stroke-width:0.5;" width="104" x="97" y="140.6792"/><text fill="#000000" font-family="sans-serif" font-size="12" lengthAdjust="spacing" textLength="84" x="107" y="161.8179">&#23436;&#20840;&#12395;&#29702;&#35299;&#12375;&#12383;</text><line style="stroke:#181818;stroke-width:1.0;" x1="65.5" x2="65.5" y1="88.9688" y2="120.6792"/><polygon fill="#181818" points="61.5,110.6792,65.5,120.6792,69.5,110.6792,65.5,114.6792" style="stroke:#181818;stroke-width:1.0;"/><line style="stroke:#181818;stroke-width:1.0;" x1="179.5" x2="179.5" y1="88.9688" y2="120.6792"/><polygon fill="#181818" points="175.5,110.6792,179.5,120.6792,183.5,110.6792,179.5,114.6792" style="stroke:#181818;stroke-width:1.0;"/><line style="stroke:#181818;stroke-width:1.0;" x1="111" x2="131" y1="76.9688" y2="76.9688"/><polygon fill="#181818" points="121,72.9688,131,76.9688,121,80.9688,125,76.9688" style="stroke:#181818;stroke-width:1.0;"/><line style="stroke:#181818;stroke-width:1.0;" x1="149" x2="149" y1="44.9688" y2="49.9688"/><line style="stroke:#181818;stroke-width:1.0;" x1="149" x2="65.5" y1="49.9688" y2="49.9688"/><line style="stroke:#181818;stroke-width:1.0;" x1="65.5" x2="65.5" y1="49.9688" y2="64.9688"/><polygon fill="#181818" points="61.5,54.9688,65.5,64.9688,69.5,54.9688,65.5,58.9688" style="stroke:#181818;stroke-width:1.0;"/><line style="stroke:#181818;stroke-width:1.0;" x1="228" x2="263" y1="76.9688" y2="76.9688"/><line style="stroke:#181818;stroke-width:1.0;" x1="263" x2="263" y1="76.9688" y2="120.6792"/><polygon fill="#181818" points="259,110.6792,263,120.6792,267,110.6792,263,114.6792" style="stroke:#181818;stroke-width:1.0;"/><line style="stroke:#181818;stroke-width:1.0;" x1="65.5" x2="263" y1="120.6792" y2="120.6792"/><line style="stroke:#181818;stroke-width:1.0;" x1="149" x2="149" y1="120.6792" y2="140.6792"/><polygon fill="#181818" points="145,130.6792,149,140.6792,153,130.6792,149,134.6792" style="stroke:#181818;stroke-width:1.0;"/><!--SRC=[ithSjFbnyxp7pK2oyt5J_-F6xiTDGCPaQwxCD0MDafoK8eN7ZSjVhDh_k77duwPkJOMIZDGy1GseqiR5ZnldQtAbvXIdWfJd9kOHgHeajW6Cke42UIcPQLnSLa_NzJnjNV6uSVNp2MqlbWCLJmUgjmO0]--></g></svg>